<?xml version="1.0" encoding="utf-8"?>
<!-- Generator: Adobe Illustrator 23.0.4, SVG Export Plug-In . SVG Version: 6.00 Build 0)  -->
<svg version="1.1" id="Layer_2" xmlns="http://www.w3.org/2000/svg" xmlns:xlink="http://www.w3.org/1999/xlink" x="0px" y="0px"
	 viewBox="0 0 532.2 540.6" style="enable-background:new 0 0 532.2 540.6;" xml:space="preserve">
<style type="text/css">
	.st0{fill:none;stroke:#000000;}
	.st1{fill:none;}
	.st2{fill:url(#SVGID_1_);}
	.st3{fill:url(#SVGID_2_);}
	.st4{fill:url(#SVGID_3_);}
	.st5{fill:url(#SVGID_4_);}
	.st6{fill:url(#SVGID_5_);}
	.st7{fill:url(#SVGID_6_);}
</style>
<g>
	<g>
		<line class="st0" x1="231.9" y1="315.9" x2="343.63" y2="202.45"/>
		<g>
			<polygon points="344.17,205.21 348.6,197.4 340.86,201.95 			"/>
		</g>
	</g>
</g>
<g>
	<g>
		<line class="st0" x1="362.77" y1="319.2" x2="362.77" y2="203.29"/>
		<g>
			<polygon points="365.1,204.87 362.77,196.2 360.45,204.87 			"/>
		</g>
	</g>
</g>
<g>
	<g>
		<line class="st0" x1="375" y1="313.35" x2="375" y2="203.29"/>
		<g>
			<polygon points="377.32,204.87 375,196.2 372.68,204.87 			"/>
		</g>
	</g>
</g>
<g>
	<g>
		<line class="st0" x1="388.8" y1="313.35" x2="388.8" y2="203.29"/>
		<g>
			<polygon points="391.12,204.87 388.8,196.2 386.48,204.87 			"/>
		</g>
	</g>
</g>
<g>
	<g>
		<line class="st0" x1="401.1" y1="313.35" x2="401.1" y2="203.29"/>
		<g>
			<polygon points="403.42,204.87 401.1,196.2 398.78,204.87 			"/>
		</g>
	</g>
</g>
<g>
	<g>
		<line class="st0" x1="228.6" y1="138.82" x2="341.51" y2="138.82"/>
		<g>
			<polygon points="339.93,141.15 348.6,138.82 339.93,136.5 			"/>
		</g>
	</g>
</g>
<g>
	<g>
		<line class="st0" x1="240.6" y1="155.17" x2="341.51" y2="155.17"/>
		<g>
			<polygon points="339.93,157.5 348.6,155.17 339.93,152.85 			"/>
		</g>
	</g>
</g>
<g>
	<g>
		<line class="st0" x1="234" y1="171.22" x2="341.51" y2="171.22"/>
		<g>
			<polygon points="339.93,173.55 348.6,171.22 339.93,168.9 			"/>
		</g>
	</g>
</g>
<g>
	<g>
		<line class="st0" x1="225.15" y1="185.47" x2="342.26" y2="185.47"/>
		<g>
			<polygon points="340.68,187.8 349.35,185.47 340.68,183.15 			"/>
		</g>
	</g>
</g>
<g>
	<g>
		<line class="st0" x1="204.6" y1="309" x2="204.6" y2="203.89"/>
		<g>
			<polygon points="206.92,205.47 204.6,196.8 202.28,205.47 			"/>
		</g>
	</g>
</g>
<g>
	<g>
		<line class="st0" x1="218.4" y1="309" x2="218.4" y2="203.89"/>
		<g>
			<polygon points="220.72,205.47 218.4,196.8 216.08,205.47 			"/>
		</g>
	</g>
</g>
<g>
	<g>
		<line class="st0" x1="69.05" y1="337.2" x2="169.51" y2="337.2"/>
		<g>
			<polygon points="167.93,339.52 176.6,337.2 167.93,334.88 			"/>
		</g>
	</g>
</g>
<g>
	<g>
		<line class="st0" x1="213.6" y1="477.82" x2="213.6" y2="380.29"/>
		<g>
			<polygon points="215.92,381.87 213.6,373.2 211.28,381.87 			"/>
		</g>
	</g>
</g>
<g>
	<g>
		<line class="st0" x1="228.3" y1="134.47" x2="289.48" y2="73.3"/>
		<g>
			<polygon points="290,76.06 294.49,68.29 286.71,72.78 			"/>
		</g>
	</g>
</g>
<g>
	<g>
		<line class="st0" x1="412.5" y1="327.08" x2="473.68" y2="265.9"/>
		<g>
			<polygon points="474.2,268.66 478.69,260.89 470.91,265.38 			"/>
		</g>
	</g>
</g>
<g>
	<g>
		<line class="st0" x1="240.6" y1="327.6" x2="340.97" y2="327.6"/>
		<g>
			<polygon points="339.39,329.92 348.06,327.6 339.39,325.28 			"/>
		</g>
	</g>
</g>
<g>
	<g>
		<line class="st0" x1="240.6" y1="342.6" x2="340.97" y2="342.6"/>
		<g>
			<polygon points="339.39,344.92 348.06,342.6 339.39,340.28 			"/>
		</g>
	</g>
</g>
<g>
	<g>
		<line class="st0" x1="189.6" y1="489" x2="66.47" y2="367.7"/>
		<g>
			<polygon points="69.23,367.16 61.42,362.72 65.97,370.47 			"/>
		</g>
	</g>
</g>
<g>
	<g>
		<line class="st0" x1="213.23" y1="477.45" x2="80.25" y2="346.18"/>
		<g>
			<polygon points="83.01,345.64 75.21,341.2 79.74,348.95 			"/>
		</g>
	</g>
</g>
<g>
	<g>
		<line class="st0" x1="188.26" y1="520.47" x2="39.84" y2="374.59"/>
		<g>
			<polygon points="42.6,374.04 34.79,369.62 39.35,377.36 			"/>
		</g>
	</g>
</g>
<g>
	<g>
		<line class="st0" x1="226.2" y1="186" x2="348.09" y2="307.89"/>
		<g>
			<polygon points="345.32,308.41 353.1,312.9 348.61,305.12 			"/>
		</g>
	</g>
</g>
<g>
	<g>
		<line class="st0" x1="92.4" y1="74.4" x2="114.71" y2="74.4"/>
		<g>
			<polygon points="113.13,76.72 121.8,74.4 113.13,72.08 			"/>
		</g>
	</g>
</g>
<g>
	<g>
		<line class="st0" x1="447" y1="61.8" x2="390.21" y2="118.59"/>
		<g>
			<polygon points="389.69,115.82 385.2,123.6 392.98,119.11 			"/>
		</g>
	</g>
</g>
<g>
	<g>
		<line class="st0" x1="474.6" y1="72.6" x2="417.81" y2="129.39"/>
		<g>
			<polygon points="417.29,126.62 412.8,134.4 420.58,129.91 			"/>
		</g>
	</g>
</g>
<g>
	<g>
		<line class="st0" x1="480" y1="105" x2="423.21" y2="161.79"/>
		<g>
			<polygon points="422.69,159.02 418.2,166.8 425.98,162.31 			"/>
		</g>
	</g>
</g>
<g>
	<rect class="st1" width="532.2" height="540.6"/>
</g>
<radialGradient id="SVGID_1_" cx="26.399" cy="342.4505" r="28.9814" gradientUnits="userSpaceOnUse">
	<stop  offset="0" style="stop-color:#FFFFFF"/>
	<stop  offset="1" style="stop-color:#29ABE2"/>
</radialGradient>
<path class="st2" d="M69,335.85c0,15.91-12.89,28.8-28.8,28.8c-15.91,0-28.8-12.89-28.8-28.8c0-15.91,12.89-28.8,28.8-28.8
	C56.11,307.05,69,319.94,69,335.85z"/>
<radialGradient id="SVGID_2_" cx="198.7491" cy="342.4505" r="28.9814" gradientUnits="userSpaceOnUse">
	<stop  offset="0" style="stop-color:#FFFFFF"/>
	<stop  offset="1" style="stop-color:#29ABE2"/>
</radialGradient>
<path class="st3" d="M241.35,335.85c0,15.91-12.89,28.8-28.8,28.8c-15.91,0-28.8-12.89-28.8-28.8c0-15.91,12.89-28.8,28.8-28.8
	C228.46,307.05,241.35,319.94,241.35,335.85z"/>
<radialGradient id="SVGID_3_" cx="198.7491" cy="512.8509" r="28.9814" gradientUnits="userSpaceOnUse">
	<stop  offset="0" style="stop-color:#CCFFFF"/>
	<stop  offset="1" style="stop-color:#39B54A"/>
</radialGradient>
<path class="st4" d="M241.35,506.25c0,15.91-12.89,28.8-28.8,28.8c-15.91,0-28.8-12.89-28.8-28.8c0-15.91,12.89-28.8,28.8-28.8
	C228.46,477.45,241.35,490.34,241.35,506.25z"/>
<radialGradient id="SVGID_4_" cx="198.7491" cy="166.2008" r="28.9815" gradientUnits="userSpaceOnUse">
	<stop  offset="0" style="stop-color:#FFFFFF"/>
	<stop  offset="1" style="stop-color:#F15A24"/>
</radialGradient>
<path class="st5" d="M241.35,159.6c0,15.91-12.89,28.8-28.8,28.8c-15.91,0-28.8-12.89-28.8-28.8c0-15.91,12.89-28.8,28.8-28.8
	C228.46,130.8,241.35,143.69,241.35,159.6z"/>
<radialGradient id="SVGID_5_" cx="370.7985" cy="166.2008" r="28.9817" gradientUnits="userSpaceOnUse">
	<stop  offset="0" style="stop-color:#FFFFFF"/>
	<stop  offset="1" style="stop-color:#F15A24"/>
</radialGradient>
<path class="st6" d="M413.4,159.6c0,15.91-12.89,28.8-28.8,28.8c-15.91,0-28.8-12.89-28.8-28.8c0-15.91,12.89-28.8,28.8-28.8
	C400.51,130.8,413.4,143.69,413.4,159.6z"/>
<radialGradient id="SVGID_6_" cx="370.7985" cy="342.4505" r="28.9816" gradientUnits="userSpaceOnUse">
	<stop  offset="0" style="stop-color:#FFFFFF"/>
	<stop  offset="1" style="stop-color:#29ABE2"/>
</radialGradient>
<path class="st7" d="M413.4,335.85c0,15.91-12.89,28.8-28.8,28.8c-15.91,0-28.8-12.89-28.8-28.8c0-15.91,12.89-28.8,28.8-28.8
	C400.51,307.05,413.4,319.94,413.4,335.85z"/>
<g>
	<path d="M284.46,346.5c-0.74,1.43-1.21,2.48-1.43,3.16c-0.33,1.03-0.5,2.21-0.5,3.56c0,1.36,0.19,2.6,0.57,3.73
		c0.23,0.69,0.7,1.69,1.39,3h-0.85c-0.68-1.07-1.11-1.75-1.27-2.05c-0.16-0.29-0.34-0.7-0.53-1.2c-0.26-0.69-0.45-1.43-0.55-2.22
		c-0.05-0.41-0.08-0.8-0.08-1.17c0-1.39,0.22-2.62,0.65-3.71c0.28-0.69,0.85-1.72,1.73-3.09H284.46z"/>
	<path d="M285.92,349.47h1.2v1.07c0.36-0.44,0.73-0.76,1.13-0.95s0.84-0.29,1.33-0.29c1.07,0,1.79,0.37,2.17,1.12
		c0.21,0.41,0.31,0.99,0.31,1.75V357h-1.29v-4.75c0-0.46-0.07-0.83-0.2-1.11c-0.23-0.47-0.63-0.7-1.22-0.7
		c-0.3,0-0.55,0.03-0.74,0.09c-0.35,0.1-0.65,0.31-0.91,0.62c-0.21,0.25-0.35,0.5-0.41,0.77c-0.06,0.26-0.1,0.64-0.1,1.14V357h-1.27
		V349.47z"/>
	<path d="M294.2,358.48c0.32-0.06,0.55-0.29,0.68-0.69c0.07-0.21,0.11-0.42,0.11-0.61c0-0.03,0-0.06,0-0.09
		c0-0.03-0.01-0.05-0.02-0.09h-0.77v-1.53h1.5v1.42c0,0.56-0.11,1.05-0.34,1.47c-0.22,0.42-0.61,0.68-1.17,0.78V358.48z"/>
	<path d="M299.8,356.19c-0.29-1.38-0.61-2.48-0.96-3.29c-0.35-0.81-0.67-1.22-0.96-1.22c-0.15,0-0.26,0.07-0.35,0.21
		c-0.09,0.14-0.15,0.34-0.17,0.6h-0.33v-0.43c0-0.58,0.08-1.01,0.25-1.29c0.17-0.28,0.42-0.42,0.76-0.42c0.62,0,1.26,1.54,1.93,4.61
		l0.13,0.59c0.46-1.1,0.78-2.31,0.93-3.61c0.02-0.17,0.04-0.29,0.05-0.36c0.06-0.43,0.14-0.74,0.27-0.92
		c0.12-0.19,0.29-0.29,0.49-0.29c0.2,0,0.36,0.05,0.46,0.16c0.11,0.11,0.16,0.26,0.16,0.47c0,0.38-0.29,1.17-0.88,2.36
		s-1.03,2.15-1.32,2.88c0.08,0.54,0.13,1.02,0.17,1.45c0.04,0.43,0.06,0.79,0.06,1.09c0,0.48-0.05,0.83-0.15,1.04
		c-0.1,0.21-0.26,0.31-0.47,0.31c-0.21,0-0.37-0.09-0.48-0.26c-0.11-0.17-0.16-0.43-0.16-0.77c0-0.34,0.05-0.76,0.15-1.24
		C299.47,357.36,299.61,356.81,299.8,356.19z"/>
	<path d="M303.42,359.94c0.75-1.45,1.23-2.51,1.44-3.18c0.33-1.01,0.49-2.19,0.49-3.54c0-1.35-0.19-2.59-0.57-3.72
		c-0.23-0.69-0.7-1.69-1.38-3h0.85c0.72,1.15,1.16,1.87,1.31,2.13s0.32,0.64,0.5,1.11c0.23,0.59,0.39,1.17,0.48,1.74
		c0.1,0.57,0.14,1.12,0.14,1.65c0,1.39-0.22,2.62-0.66,3.71c-0.28,0.7-0.85,1.73-1.72,3.09H303.42z"/>
</g>
<g>
	<path d="M238.63,281.2c0.49,1.53,0.9,2.61,1.22,3.25c0.49,0.96,1.21,1.92,2.16,2.87c0.96,0.96,1.97,1.71,3.04,2.23
		c0.66,0.33,1.69,0.7,3.1,1.14l-0.6,0.6c-1.24-0.27-2.02-0.45-2.35-0.55c-0.32-0.09-0.73-0.25-1.23-0.47
		c-0.68-0.3-1.33-0.7-1.96-1.18c-0.33-0.25-0.62-0.51-0.88-0.77c-0.98-0.98-1.7-2.01-2.16-3.08c-0.29-0.68-0.61-1.82-0.96-3.41
		L238.63,281.2z"/>
	<path d="M244.85,279.5c0.26-0.06,0.61-0.06,1.06-0.02l-2.69-2.69l0.86-0.86l7.33,7.33l-0.81,0.81l-0.74-0.74
		c0.12,0.54,0.11,1.02-0.03,1.45c-0.14,0.43-0.39,0.83-0.76,1.19c-0.59,0.59-1.35,0.85-2.28,0.79c-0.93-0.07-1.81-0.51-2.64-1.34
		c-0.78-0.78-1.25-1.64-1.42-2.61s0.1-1.81,0.84-2.54C243.98,279.86,244.4,279.61,244.85,279.5z M246.84,285.49
		c0.63,0.14,1.2-0.05,1.73-0.58c0.41-0.41,0.57-0.93,0.48-1.55c-0.09-0.62-0.47-1.27-1.14-1.93c-0.67-0.67-1.31-1.03-1.91-1.08
		c-0.6-0.05-1.1,0.13-1.5,0.53c-0.45,0.45-0.64,0.99-0.57,1.61c0.07,0.62,0.43,1.27,1.1,1.94
		C245.62,284.99,246.22,285.35,246.84,285.49z"/>
	<path d="M253.98,282.78c0.19-0.27,0.19-0.59,0-0.97c-0.1-0.2-0.22-0.37-0.36-0.51c-0.02-0.02-0.04-0.04-0.07-0.06
		c-0.02-0.02-0.04-0.03-0.07-0.05l-0.54,0.54l-1.08-1.08l1.06-1.06l1,1c0.39,0.39,0.66,0.82,0.8,1.28c0.14,0.46,0.05,0.92-0.27,1.38
		L253.98,282.78z"/>
	<path d="M256.32,277.21c-1.18-0.77-2.19-1.32-3.01-1.65c-0.82-0.32-1.33-0.38-1.54-0.18c-0.1,0.1-0.14,0.23-0.1,0.4
		s0.14,0.34,0.3,0.54l-0.23,0.23l-0.3-0.3c-0.41-0.41-0.65-0.77-0.74-1.09c-0.08-0.32,0-0.6,0.23-0.83
		c0.44-0.44,1.98,0.19,4.62,1.89l0.51,0.33c-0.45-1.11-1.08-2.18-1.89-3.22c-0.11-0.13-0.18-0.23-0.22-0.29
		c-0.26-0.34-0.42-0.62-0.46-0.84c-0.05-0.22,0-0.4,0.15-0.55c0.14-0.14,0.29-0.21,0.44-0.21c0.15,0,0.3,0.08,0.44,0.22
		c0.27,0.27,0.62,1.04,1.05,2.29c0.43,1.25,0.79,2.24,1.1,2.97c0.43,0.33,0.82,0.63,1.15,0.9c0.33,0.28,0.6,0.52,0.81,0.73
		c0.34,0.34,0.55,0.62,0.63,0.84c0.08,0.22,0.04,0.4-0.11,0.55c-0.15,0.15-0.32,0.2-0.52,0.15s-0.42-0.19-0.66-0.43
		c-0.24-0.24-0.5-0.57-0.77-0.98C256.92,278.27,256.63,277.78,256.32,277.21z"/>
	<path d="M261.54,277.29c-0.5-1.55-0.91-2.64-1.23-3.27c-0.48-0.94-1.2-1.9-2.16-2.85c-0.96-0.96-1.97-1.7-3.03-2.23
		c-0.66-0.32-1.69-0.7-3.1-1.14l0.6-0.6c1.32,0.3,2.14,0.5,2.44,0.58c0.3,0.08,0.68,0.23,1.14,0.44c0.57,0.26,1.1,0.55,1.57,0.89
		c0.47,0.34,0.9,0.69,1.27,1.07c0.98,0.98,1.7,2.01,2.16,3.09c0.3,0.69,0.62,1.82,0.96,3.4L261.54,277.29z"/>
</g>
<g>
	<path d="M276.96,122.7c-0.74,1.43-1.21,2.48-1.43,3.16c-0.33,1.03-0.5,2.21-0.5,3.56c0,1.36,0.19,2.6,0.57,3.73
		c0.23,0.69,0.7,1.69,1.39,3h-0.85c-0.68-1.07-1.11-1.75-1.27-2.05s-0.34-0.7-0.53-1.2c-0.26-0.69-0.45-1.43-0.55-2.22
		c-0.05-0.41-0.08-0.8-0.08-1.17c0-1.39,0.22-2.62,0.65-3.71c0.28-0.69,0.85-1.72,1.73-3.09H276.96z"/>
	<path d="M278.42,125.67h1.2v1.07c0.36-0.44,0.73-0.76,1.13-0.95c0.4-0.19,0.84-0.29,1.33-0.29c1.07,0,1.79,0.37,2.17,1.12
		c0.21,0.41,0.31,0.99,0.31,1.75v4.83h-1.29v-4.75c0-0.46-0.07-0.83-0.2-1.11c-0.23-0.47-0.63-0.7-1.22-0.7
		c-0.3,0-0.55,0.03-0.74,0.09c-0.35,0.1-0.65,0.31-0.91,0.62c-0.21,0.25-0.35,0.51-0.41,0.77c-0.06,0.26-0.1,0.64-0.1,1.14v3.94
		h-1.27V125.67z"/>
	<path d="M286.7,134.68c0.32-0.06,0.55-0.29,0.68-0.69c0.07-0.21,0.11-0.42,0.11-0.61c0-0.03,0-0.06,0-0.09
		c0-0.03-0.01-0.06-0.02-0.09h-0.77v-1.53h1.5v1.42c0,0.56-0.11,1.05-0.34,1.47c-0.22,0.42-0.61,0.68-1.17,0.78V134.68z"/>
	<path d="M292.3,132.39c-0.29-1.38-0.61-2.48-0.96-3.29s-0.67-1.22-0.96-1.22c-0.15,0-0.26,0.07-0.35,0.21
		c-0.09,0.14-0.15,0.34-0.17,0.6h-0.33v-0.43c0-0.58,0.08-1.01,0.25-1.29s0.42-0.43,0.76-0.43c0.62,0,1.26,1.54,1.93,4.61l0.13,0.59
		c0.46-1.1,0.78-2.31,0.93-3.61c0.02-0.17,0.04-0.29,0.05-0.36c0.06-0.43,0.14-0.73,0.27-0.92c0.12-0.19,0.29-0.29,0.49-0.29
		c0.2,0,0.36,0.05,0.46,0.16s0.16,0.26,0.16,0.47c0,0.38-0.29,1.17-0.88,2.36c-0.59,1.19-1.03,2.15-1.32,2.88
		c0.08,0.54,0.13,1.02,0.17,1.45c0.04,0.43,0.06,0.79,0.06,1.09c0,0.48-0.05,0.83-0.15,1.04c-0.1,0.21-0.26,0.31-0.47,0.31
		c-0.21,0-0.37-0.09-0.48-0.26c-0.11-0.17-0.16-0.43-0.16-0.77c0-0.34,0.05-0.76,0.15-1.24
		C291.97,133.56,292.11,133.01,292.3,132.39z"/>
	<path d="M295.92,136.14c0.75-1.45,1.23-2.51,1.44-3.18c0.33-1.01,0.49-2.19,0.49-3.54s-0.19-2.59-0.57-3.72
		c-0.23-0.69-0.7-1.69-1.38-3h0.85c0.72,1.15,1.16,1.86,1.31,2.13s0.32,0.64,0.5,1.11c0.23,0.59,0.39,1.16,0.48,1.74
		c0.1,0.57,0.14,1.12,0.14,1.65c0,1.39-0.22,2.63-0.66,3.71c-0.28,0.7-0.85,1.73-1.72,3.09H295.92z"/>
</g>
<g>
	<path d="M117.06,319.5c-0.74,1.43-1.21,2.48-1.43,3.16c-0.33,1.03-0.5,2.21-0.5,3.56c0,1.36,0.19,2.6,0.57,3.73
		c0.23,0.69,0.7,1.69,1.39,3h-0.85c-0.68-1.07-1.11-1.75-1.27-2.05c-0.16-0.29-0.34-0.7-0.53-1.2c-0.26-0.69-0.45-1.43-0.55-2.22
		c-0.05-0.41-0.08-0.8-0.08-1.17c0-1.39,0.22-2.62,0.65-3.71c0.28-0.69,0.85-1.72,1.73-3.09H117.06z"/>
	<path d="M118.52,322.47h1.2v1.07c0.36-0.44,0.73-0.76,1.13-0.95c0.4-0.19,0.84-0.29,1.33-0.29c1.07,0,1.79,0.37,2.17,1.12
		c0.21,0.41,0.31,0.99,0.31,1.75V330h-1.29v-4.75c0-0.46-0.07-0.83-0.2-1.11c-0.23-0.47-0.63-0.7-1.22-0.7
		c-0.3,0-0.55,0.03-0.74,0.09c-0.35,0.1-0.65,0.31-0.91,0.62c-0.21,0.25-0.35,0.5-0.41,0.77c-0.06,0.26-0.09,0.64-0.09,1.14V330
		h-1.27V322.47z"/>
	<path d="M126.8,331.48c0.32-0.06,0.55-0.29,0.68-0.69c0.07-0.21,0.11-0.42,0.11-0.61c0-0.03,0-0.06,0-0.09
		c0-0.03-0.01-0.05-0.02-0.09h-0.77v-1.53h1.5v1.42c0,0.56-0.11,1.05-0.34,1.47c-0.22,0.42-0.61,0.68-1.17,0.78V331.48z"/>
	<path d="M132.4,329.19c-0.29-1.38-0.61-2.48-0.96-3.29c-0.35-0.81-0.67-1.22-0.96-1.22c-0.15,0-0.26,0.07-0.35,0.21
		s-0.15,0.34-0.17,0.6h-0.33v-0.43c0-0.58,0.08-1.01,0.25-1.29c0.17-0.28,0.42-0.42,0.76-0.42c0.62,0,1.26,1.54,1.93,4.61l0.13,0.59
		c0.46-1.1,0.78-2.31,0.94-3.61c0.02-0.17,0.04-0.29,0.05-0.36c0.06-0.43,0.15-0.74,0.27-0.92c0.12-0.19,0.29-0.29,0.49-0.29
		c0.2,0,0.36,0.05,0.46,0.16c0.11,0.11,0.16,0.26,0.16,0.47c0,0.38-0.29,1.17-0.88,2.36c-0.59,1.19-1.03,2.15-1.32,2.88
		c0.08,0.54,0.13,1.02,0.17,1.45c0.04,0.43,0.06,0.79,0.06,1.09c0,0.48-0.05,0.83-0.15,1.04c-0.1,0.21-0.26,0.31-0.47,0.31
		c-0.21,0-0.37-0.09-0.48-0.26c-0.11-0.17-0.16-0.43-0.16-0.77c0-0.34,0.05-0.76,0.15-1.24
		C132.07,330.36,132.21,329.81,132.4,329.19z"/>
	<path d="M136.02,332.94c0.75-1.45,1.23-2.51,1.44-3.18c0.33-1.01,0.49-2.19,0.49-3.54c0-1.35-0.19-2.59-0.57-3.72
		c-0.23-0.69-0.7-1.69-1.39-3h0.85c0.72,1.15,1.16,1.87,1.31,2.13s0.32,0.64,0.5,1.11c0.23,0.59,0.39,1.17,0.48,1.74
		c0.1,0.57,0.14,1.12,0.14,1.65c0,1.39-0.22,2.62-0.66,3.71c-0.28,0.7-0.85,1.73-1.72,3.09H136.02z"/>
</g>
<g>
	<path d="M175.24,230.1c-0.74,1.43-1.21,2.48-1.43,3.16c-0.33,1.03-0.5,2.21-0.5,3.56c0,1.36,0.19,2.6,0.57,3.73
		c0.23,0.69,0.7,1.69,1.39,3h-0.85c-0.68-1.07-1.11-1.75-1.27-2.05s-0.34-0.7-0.53-1.2c-0.26-0.69-0.45-1.43-0.55-2.22
		c-0.05-0.41-0.08-0.8-0.08-1.17c0-1.39,0.22-2.62,0.65-3.71c0.28-0.69,0.85-1.72,1.73-3.09H175.24z"/>
	<path d="M176.6,233.1h1.24v1c0.25-0.34,0.53-0.61,0.83-0.79c0.43-0.28,0.93-0.42,1.51-0.42c0.86,0,1.58,0.33,2.18,0.98
		c0.6,0.65,0.9,1.59,0.9,2.8c0,1.64-0.43,2.81-1.29,3.52c-0.55,0.45-1.18,0.67-1.91,0.67c-0.57,0-1.05-0.12-1.43-0.37
		c-0.23-0.14-0.48-0.38-0.76-0.72v3.85h-1.27V233.1z M181.36,239.01c0.39-0.49,0.59-1.23,0.59-2.22c0-0.6-0.09-1.12-0.26-1.55
		c-0.33-0.83-0.93-1.24-1.81-1.24c-0.88,0-1.48,0.44-1.81,1.31c-0.17,0.47-0.26,1.06-0.26,1.79c0,0.58,0.09,1.08,0.26,1.48
		c0.33,0.78,0.93,1.17,1.81,1.17C180.47,239.75,180.97,239.5,181.36,239.01z"/>
	<path d="M184.98,242.08c0.32-0.06,0.55-0.29,0.68-0.69c0.07-0.21,0.11-0.42,0.11-0.61c0-0.03,0-0.06,0-0.09
		c0-0.03-0.01-0.06-0.02-0.09h-0.77v-1.53h1.5v1.42c0,0.56-0.11,1.05-0.34,1.47c-0.22,0.42-0.61,0.68-1.17,0.78V242.08z"/>
	<path d="M190.57,239.79c-0.29-1.38-0.61-2.48-0.96-3.29s-0.67-1.22-0.96-1.22c-0.15,0-0.26,0.07-0.35,0.21s-0.15,0.34-0.17,0.6
		h-0.33v-0.43c0-0.58,0.08-1.01,0.25-1.29s0.42-0.43,0.76-0.43c0.62,0,1.26,1.54,1.93,4.61l0.13,0.59c0.46-1.1,0.78-2.31,0.94-3.61
		c0.02-0.17,0.04-0.29,0.05-0.36c0.06-0.43,0.15-0.73,0.27-0.92c0.12-0.19,0.29-0.29,0.49-0.29c0.2,0,0.36,0.05,0.46,0.16
		s0.16,0.26,0.16,0.47c0,0.38-0.29,1.17-0.88,2.36c-0.59,1.19-1.03,2.15-1.32,2.88c0.08,0.54,0.13,1.02,0.17,1.45
		c0.04,0.43,0.06,0.79,0.06,1.09c0,0.48-0.05,0.83-0.15,1.04c-0.1,0.21-0.26,0.31-0.47,0.31c-0.21,0-0.37-0.09-0.48-0.26
		s-0.16-0.43-0.16-0.77c0-0.34,0.05-0.76,0.15-1.24C190.24,240.96,190.39,240.41,190.57,239.79z"/>
	<path d="M194.2,243.54c0.75-1.45,1.23-2.51,1.44-3.18c0.33-1.01,0.49-2.19,0.49-3.54s-0.19-2.59-0.57-3.72
		c-0.23-0.69-0.7-1.69-1.39-3h0.85c0.72,1.15,1.16,1.86,1.31,2.13s0.32,0.64,0.5,1.11c0.23,0.59,0.39,1.16,0.48,1.74
		c0.1,0.57,0.14,1.12,0.14,1.65c0,1.39-0.22,2.63-0.66,3.71c-0.28,0.7-0.85,1.73-1.72,3.09H194.2z"/>
</g>
<g>
	<path d="M411.06,241.8c-0.74,1.43-1.21,2.48-1.43,3.16c-0.33,1.03-0.5,2.21-0.5,3.56c0,1.36,0.19,2.6,0.57,3.73
		c0.23,0.69,0.7,1.69,1.39,3h-0.85c-0.68-1.07-1.11-1.75-1.27-2.05s-0.34-0.7-0.53-1.2c-0.26-0.69-0.45-1.43-0.55-2.22
		c-0.05-0.41-0.08-0.8-0.08-1.17c0-1.39,0.22-2.62,0.65-3.71c0.28-0.69,0.85-1.72,1.73-3.09H411.06z"/>
	<path d="M412.42,244.81h1.24v1c0.25-0.34,0.53-0.61,0.83-0.79c0.43-0.28,0.93-0.42,1.51-0.42c0.86,0,1.58,0.33,2.18,0.98
		s0.9,1.59,0.9,2.8c0,1.64-0.43,2.81-1.29,3.52c-0.55,0.45-1.18,0.67-1.91,0.67c-0.57,0-1.05-0.12-1.43-0.37
		c-0.23-0.14-0.48-0.38-0.76-0.72v3.85h-1.27V244.81z M417.18,250.71c0.39-0.49,0.59-1.23,0.59-2.22c0-0.6-0.09-1.12-0.26-1.55
		c-0.33-0.83-0.93-1.24-1.81-1.24c-0.88,0-1.48,0.44-1.81,1.31c-0.17,0.47-0.26,1.06-0.26,1.79c0,0.58,0.09,1.08,0.26,1.48
		c0.33,0.78,0.93,1.17,1.81,1.17C416.29,251.45,416.79,251.2,417.18,250.71z"/>
	<path d="M420.8,253.78c0.32-0.06,0.55-0.29,0.68-0.69c0.07-0.21,0.11-0.42,0.11-0.61c0-0.03,0-0.06,0-0.09
		c0-0.03-0.01-0.06-0.02-0.09h-0.77v-1.53h1.5v1.42c0,0.56-0.11,1.05-0.34,1.47c-0.22,0.42-0.61,0.68-1.17,0.78V253.78z"/>
	<path d="M426.4,251.49c-0.29-1.38-0.61-2.48-0.96-3.29s-0.67-1.22-0.96-1.22c-0.15,0-0.26,0.07-0.35,0.21
		c-0.09,0.14-0.15,0.34-0.17,0.6h-0.33v-0.43c0-0.58,0.08-1.01,0.25-1.29s0.42-0.43,0.76-0.43c0.62,0,1.26,1.54,1.93,4.61l0.13,0.59
		c0.46-1.1,0.78-2.31,0.93-3.61c0.02-0.17,0.04-0.29,0.05-0.36c0.06-0.43,0.14-0.73,0.27-0.92c0.12-0.19,0.29-0.29,0.49-0.29
		c0.2,0,0.36,0.05,0.46,0.16s0.16,0.26,0.16,0.47c0,0.38-0.29,1.17-0.88,2.36c-0.59,1.19-1.03,2.15-1.32,2.88
		c0.08,0.54,0.13,1.02,0.17,1.45c0.04,0.43,0.06,0.79,0.06,1.09c0,0.48-0.05,0.83-0.15,1.04c-0.1,0.21-0.26,0.31-0.47,0.31
		c-0.21,0-0.37-0.09-0.48-0.26c-0.11-0.17-0.16-0.43-0.16-0.77c0-0.34,0.05-0.76,0.15-1.24
		C426.07,252.66,426.21,252.11,426.4,251.49z"/>
	<path d="M430.02,255.24c0.75-1.45,1.23-2.51,1.44-3.18c0.33-1.01,0.49-2.19,0.49-3.54s-0.19-2.59-0.57-3.72
		c-0.23-0.69-0.7-1.69-1.38-3h0.85c0.72,1.15,1.16,1.86,1.31,2.13s0.32,0.64,0.5,1.11c0.23,0.59,0.39,1.16,0.48,1.74
		c0.1,0.57,0.14,1.12,0.14,1.65c0,1.39-0.22,2.63-0.66,3.71c-0.28,0.7-0.85,1.73-1.72,3.09H430.02z"/>
</g>
<g>
	<path d="M223.26,413.7c-0.74,1.43-1.21,2.48-1.43,3.16c-0.33,1.03-0.5,2.21-0.5,3.56c0,1.36,0.19,2.6,0.57,3.73
		c0.23,0.69,0.7,1.69,1.39,3h-0.85c-0.68-1.07-1.11-1.75-1.27-2.05c-0.16-0.29-0.34-0.7-0.53-1.2c-0.26-0.69-0.45-1.43-0.55-2.22
		c-0.05-0.41-0.08-0.8-0.08-1.17c0-1.39,0.22-2.62,0.65-3.71c0.28-0.69,0.85-1.72,1.73-3.09H223.26z"/>
	<path d="M224.62,416.71h1.24v1c0.25-0.34,0.53-0.61,0.83-0.79c0.43-0.28,0.93-0.42,1.51-0.42c0.86,0,1.58,0.33,2.18,0.98
		c0.6,0.65,0.9,1.59,0.9,2.8c0,1.64-0.43,2.81-1.29,3.52c-0.55,0.45-1.18,0.67-1.91,0.67c-0.57,0-1.05-0.12-1.43-0.37
		c-0.23-0.14-0.48-0.38-0.76-0.72v3.85h-1.27V416.71z M229.38,422.61c0.39-0.49,0.59-1.23,0.59-2.22c0-0.6-0.09-1.12-0.26-1.55
		c-0.33-0.83-0.93-1.25-1.81-1.25c-0.88,0-1.48,0.44-1.81,1.32c-0.17,0.47-0.26,1.06-0.26,1.79c0,0.58,0.09,1.08,0.26,1.48
		c0.33,0.78,0.93,1.17,1.81,1.17C228.49,423.35,228.99,423.1,229.38,422.61z"/>
	<path d="M233,425.68c0.32-0.06,0.55-0.29,0.68-0.69c0.07-0.21,0.11-0.42,0.11-0.61c0-0.03,0-0.06,0-0.09
		c0-0.03-0.01-0.05-0.02-0.09H233v-1.53h1.5v1.42c0,0.56-0.11,1.05-0.34,1.47c-0.22,0.42-0.61,0.68-1.17,0.78V425.68z"/>
	<path d="M238.6,423.39c-0.29-1.38-0.61-2.48-0.96-3.29c-0.35-0.81-0.67-1.22-0.96-1.22c-0.15,0-0.26,0.07-0.35,0.21
		s-0.15,0.34-0.17,0.6h-0.33v-0.43c0-0.58,0.08-1.01,0.25-1.29c0.17-0.28,0.42-0.42,0.76-0.42c0.62,0,1.26,1.54,1.93,4.61l0.13,0.59
		c0.46-1.1,0.78-2.31,0.94-3.61c0.02-0.17,0.04-0.29,0.05-0.36c0.06-0.43,0.15-0.74,0.27-0.92c0.12-0.19,0.29-0.29,0.49-0.29
		c0.2,0,0.36,0.05,0.46,0.16c0.11,0.11,0.16,0.26,0.16,0.47c0,0.38-0.29,1.17-0.88,2.36c-0.59,1.19-1.03,2.15-1.32,2.88
		c0.08,0.54,0.13,1.02,0.17,1.45c0.04,0.43,0.06,0.79,0.06,1.09c0,0.48-0.05,0.83-0.15,1.04c-0.1,0.21-0.26,0.31-0.47,0.31
		c-0.21,0-0.37-0.09-0.48-0.26c-0.11-0.17-0.16-0.43-0.16-0.77c0-0.34,0.05-0.76,0.15-1.24
		C238.27,424.56,238.41,424.01,238.6,423.39z"/>
	<path d="M242.22,427.14c0.75-1.45,1.23-2.51,1.44-3.18c0.33-1.01,0.49-2.19,0.49-3.54c0-1.35-0.19-2.59-0.57-3.72
		c-0.23-0.69-0.7-1.69-1.39-3h0.85c0.72,1.15,1.16,1.87,1.31,2.13s0.32,0.64,0.5,1.11c0.23,0.59,0.39,1.17,0.48,1.74
		c0.1,0.57,0.14,1.12,0.14,1.65c0,1.39-0.22,2.62-0.66,3.71c-0.28,0.7-0.85,1.73-1.72,3.09H242.22z"/>
</g>
<g>
	<path d="M142.47,385.03c-1.53,0.49-2.61,0.9-3.25,1.22c-0.96,0.49-1.92,1.21-2.87,2.16c-0.96,0.96-1.71,1.97-2.23,3.04
		c-0.32,0.66-0.7,1.69-1.14,3.1l-0.6-0.6c0.27-1.24,0.45-2.02,0.55-2.35c0.09-0.32,0.25-0.73,0.47-1.23
		c0.31-0.68,0.7-1.33,1.18-1.96c0.25-0.33,0.51-0.62,0.77-0.88c0.98-0.98,2.01-1.7,3.08-2.16c0.68-0.29,1.82-0.61,3.41-0.96
		L142.47,385.03z"/>
	<path d="M140.17,389.93c0.08-0.17,0.12-0.31,0.12-0.42c0-0.11-0.03-0.19-0.1-0.26c-0.13-0.13-0.28-0.17-0.44-0.11
		c-0.17,0.06-0.38,0.22-0.65,0.48l-0.09,0.09l-0.22-0.22c0.02-0.02,0.05-0.05,0.08-0.09s0.07-0.08,0.09-0.1
		c0.39-0.39,0.76-0.61,1.12-0.67c0.36-0.06,0.68,0.06,0.97,0.34c0.25,0.25,0.39,0.54,0.4,0.84s-0.12,0.77-0.39,1.38l-1.54,3.52
		c0.78-0.17,1.43-0.38,1.97-0.64c0.54-0.26,1.01-0.59,1.4-0.98l0.24-0.24c0.33-0.33,0.61-0.51,0.84-0.55
		c0.23-0.04,0.46,0.06,0.69,0.29c0.14,0.14,0.22,0.29,0.23,0.45c0.01,0.16-0.05,0.3-0.18,0.43c-0.23,0.23-1.11,0.56-2.66,0.99
		c-1.54,0.43-2.86,0.85-3.96,1.25l-0.26-0.26L140.17,389.93z"/>
	<path d="M139.65,400.09c0.61,0.13,1.12,0.17,1.54,0.14c0.42-0.04,0.74-0.16,0.94-0.36c0.08-0.08,0.12-0.15,0.12-0.2
		c0-0.05-0.04-0.11-0.1-0.18c-0.02-0.02-0.08-0.07-0.16-0.13s-0.15-0.12-0.21-0.18c-0.17-0.17-0.26-0.35-0.27-0.54
		c-0.01-0.19,0.07-0.36,0.22-0.52c0.17-0.17,0.37-0.25,0.59-0.23s0.43,0.13,0.63,0.33c0.26,0.26,0.38,0.55,0.37,0.86
		c-0.02,0.31-0.17,0.61-0.45,0.89c-0.37,0.37-0.84,0.6-1.38,0.67c-0.55,0.07-1.17-0.01-1.85-0.26L139.65,400.09z"/>
	<path d="M152.4,399.45c0.18,0.53,0.21,1.03,0.12,1.5c-0.09,0.45-0.28,0.88-0.58,1.29c-0.19,0.3-0.56,0.72-1.09,1.25l-3.87-3.87
		c-0.52,0.56-0.83,1.12-0.92,1.68c-0.09,0.56,0.11,1.09,0.61,1.59c0.46,0.46,0.99,0.68,1.57,0.65c0.33-0.02,0.65-0.12,0.95-0.3
		l0.88,0.88c-0.22,0.17-0.51,0.31-0.89,0.42c-0.37,0.11-0.71,0.16-1.03,0.15c-0.53,0-1.05-0.16-1.54-0.46
		c-0.27-0.16-0.54-0.38-0.81-0.65c-0.66-0.66-0.98-1.46-0.95-2.4c0.02-0.94,0.47-1.84,1.34-2.71c0.85-0.85,1.78-1.32,2.78-1.39
		s1.86,0.26,2.61,1.01C151.95,398.46,152.23,398.92,152.4,399.45z M150.63,401.86c0.35-0.42,0.58-0.82,0.68-1.18
		c0.19-0.67,0-1.3-0.57-1.86c-0.41-0.41-0.9-0.6-1.47-0.58c-0.57,0.02-1.1,0.25-1.57,0.69L150.63,401.86z"/>
	<path d="M152.66,403.47l2.5,2.5l-0.92,0.92l-2.5-2.5L152.66,403.47z"/>
	<path d="M150.61,412.16c1.55-0.5,2.64-0.91,3.27-1.23c0.95-0.48,1.9-1.2,2.85-2.16s1.7-1.97,2.23-3.03c0.33-0.66,0.7-1.69,1.14-3.1
		l0.6,0.6c-0.31,1.33-0.5,2.14-0.58,2.44s-0.23,0.68-0.44,1.14c-0.25,0.57-0.55,1.1-0.89,1.57c-0.34,0.47-0.69,0.9-1.07,1.27
		c-0.98,0.98-2.01,1.7-3.09,2.16c-0.69,0.3-1.82,0.62-3.4,0.96L150.61,412.16z"/>
</g>
<g>
	<path d="M125.97,403.48c-1.53,0.49-2.61,0.9-3.25,1.22c-0.96,0.49-1.92,1.21-2.87,2.16c-0.96,0.96-1.71,1.97-2.23,3.04
		c-0.32,0.66-0.7,1.69-1.14,3.1l-0.6-0.6c0.27-1.24,0.45-2.02,0.55-2.35c0.09-0.33,0.25-0.73,0.47-1.23c0.3-0.68,0.7-1.33,1.18-1.96
		c0.25-0.32,0.51-0.62,0.77-0.88c0.98-0.98,2.01-1.7,3.08-2.16c0.68-0.29,1.82-0.61,3.41-0.96L125.97,403.48z"/>
	<path d="M128.05,410.05c0.17,0.53,0.21,1.03,0.12,1.49c-0.09,0.45-0.29,0.88-0.58,1.3c-0.19,0.3-0.56,0.72-1.09,1.25l-3.87-3.87
		c-0.53,0.56-0.83,1.12-0.92,1.68c-0.09,0.56,0.11,1.09,0.61,1.59c0.46,0.46,0.99,0.68,1.57,0.65c0.33-0.02,0.65-0.12,0.95-0.29
		l0.88,0.88c-0.22,0.17-0.51,0.31-0.89,0.42c-0.37,0.11-0.71,0.16-1.03,0.15c-0.53,0-1.05-0.16-1.54-0.46
		c-0.27-0.16-0.54-0.38-0.81-0.65c-0.66-0.66-0.98-1.46-0.95-2.4c0.02-0.94,0.47-1.84,1.34-2.71c0.85-0.85,1.78-1.32,2.77-1.39
		s1.86,0.26,2.61,1.01C127.6,409.06,127.88,409.52,128.05,410.05z M126.28,412.46c0.35-0.42,0.58-0.82,0.68-1.18
		c0.19-0.67,0-1.3-0.57-1.86c-0.41-0.41-0.9-0.6-1.47-0.58s-1.1,0.25-1.57,0.69L126.28,412.46z"/>
	<path d="M127.23,415.22l0.83-0.84l2.17,2.17l2.18-2.18l0.85,0.85l-2.18,2.18l2.17,2.17l-0.83,0.84l-2.17-2.17l-2.18,2.18
		l-0.85-0.85l2.18-2.18L127.23,415.22z"/>
	<path d="M130.34,424.78c0.27,0.19,0.59,0.19,0.97,0c0.2-0.1,0.37-0.22,0.51-0.36c0.02-0.02,0.04-0.04,0.06-0.06
		c0.02-0.02,0.03-0.04,0.05-0.07l-0.54-0.54l1.08-1.08l1.06,1.06l-1,1c-0.39,0.39-0.82,0.66-1.28,0.8
		c-0.46,0.14-0.92,0.05-1.38-0.27L130.34,424.78z"/>
	<path d="M138.11,422.82c0.08-0.17,0.12-0.31,0.12-0.42c0-0.11-0.04-0.19-0.1-0.26c-0.13-0.13-0.28-0.17-0.45-0.11
		c-0.17,0.06-0.38,0.22-0.65,0.49l-0.09,0.09l-0.22-0.22c0.02-0.02,0.05-0.05,0.08-0.09c0.04-0.04,0.07-0.08,0.09-0.1
		c0.39-0.39,0.76-0.61,1.12-0.67c0.36-0.06,0.68,0.06,0.97,0.34c0.25,0.25,0.39,0.54,0.4,0.84s-0.12,0.77-0.39,1.38l-1.54,3.52
		c0.78-0.17,1.43-0.38,1.97-0.64c0.54-0.26,1.01-0.59,1.4-0.98l0.24-0.24c0.33-0.33,0.61-0.51,0.84-0.55
		c0.23-0.04,0.46,0.06,0.69,0.29c0.14,0.14,0.22,0.29,0.23,0.45c0.01,0.16-0.05,0.3-0.18,0.43c-0.23,0.23-1.11,0.56-2.66,0.99
		c-1.54,0.43-2.86,0.85-3.96,1.25l-0.26-0.26L138.11,422.82z"/>
	<path d="M136.94,433.45c1.56-0.5,2.64-0.91,3.27-1.23c0.94-0.48,1.9-1.2,2.85-2.16c0.96-0.96,1.7-1.97,2.23-3.03
		c0.32-0.66,0.7-1.69,1.14-3.1l0.6,0.6c-0.3,1.33-0.5,2.14-0.58,2.44c-0.08,0.3-0.23,0.68-0.44,1.14c-0.26,0.57-0.55,1.1-0.89,1.57
		c-0.34,0.47-0.69,0.9-1.07,1.27c-0.98,0.98-2.01,1.7-3.09,2.16c-0.69,0.3-1.82,0.62-3.4,0.96L136.94,433.45z"/>
</g>
<g>
	<path d="M93.86,406.96c0.51-0.1,1.07,0.15,1.67,0.75c0.06,0.06,0.11,0.12,0.17,0.18c0.06,0.06,0.12,0.14,0.19,0.22l-0.82,0.82
		c-0.09-0.1-0.15-0.17-0.19-0.22c-0.04-0.04-0.08-0.08-0.12-0.12c-0.27-0.27-0.51-0.37-0.7-0.28c-0.19,0.09-0.58,0.42-1.16,1
		l0.9,0.89l-0.71,0.71l-0.9-0.89l-4.59,4.59l-0.89-0.88l4.59-4.59l-0.74-0.74l0.71-0.71l0.74,0.74l0.84-0.83
		C93.24,407.23,93.57,407.02,93.86,406.96z"/>
	<path d="M94.67,411.02l0.85,0.85l-0.92,0.92c0.25-0.11,0.64-0.16,1.17-0.14c0.53,0.02,0.97,0.2,1.33,0.55
		c0.02,0.02,0.04,0.05,0.08,0.09c0.04,0.04,0.1,0.12,0.18,0.22l-0.94,0.94c-0.04-0.06-0.09-0.12-0.13-0.17
		c-0.04-0.05-0.09-0.1-0.14-0.15c-0.45-0.45-0.94-0.65-1.47-0.6c-0.53,0.05-0.99,0.26-1.37,0.64l-3.06,3.06l-0.9-0.9L94.67,411.02z"
		/>
	<path d="M101.18,417.82c0.18,0.53,0.21,1.03,0.12,1.49c-0.09,0.45-0.29,0.88-0.58,1.3c-0.19,0.3-0.56,0.72-1.09,1.25l-3.87-3.87
		c-0.53,0.56-0.83,1.12-0.92,1.68c-0.09,0.56,0.11,1.09,0.61,1.59c0.46,0.46,0.99,0.68,1.57,0.64c0.33-0.02,0.65-0.12,0.95-0.3
		l0.88,0.88c-0.22,0.17-0.51,0.31-0.89,0.42c-0.37,0.11-0.71,0.16-1.03,0.15c-0.53,0-1.05-0.16-1.54-0.46
		c-0.27-0.16-0.54-0.38-0.81-0.65c-0.66-0.66-0.98-1.46-0.95-2.4c0.02-0.94,0.47-1.84,1.34-2.71c0.85-0.86,1.78-1.32,2.77-1.39
		c1-0.07,1.86,0.26,2.61,1.01C100.73,416.84,101,417.29,101.18,417.82z M99.41,420.24c0.35-0.42,0.58-0.82,0.68-1.18
		c0.19-0.67,0-1.29-0.57-1.86c-0.41-0.41-0.9-0.6-1.47-0.58c-0.57,0.02-1.1,0.25-1.57,0.69L99.41,420.24z"/>
	<path d="M106.84,423.49c0.18,0.53,0.21,1.03,0.12,1.49c-0.09,0.45-0.29,0.88-0.58,1.3c-0.19,0.3-0.56,0.72-1.09,1.25l-3.87-3.87
		c-0.53,0.56-0.83,1.12-0.92,1.68c-0.09,0.56,0.11,1.09,0.61,1.59c0.46,0.46,0.99,0.68,1.57,0.64c0.33-0.02,0.65-0.12,0.95-0.3
		l0.88,0.88c-0.22,0.17-0.51,0.31-0.89,0.42c-0.37,0.11-0.71,0.16-1.03,0.15c-0.53,0-1.05-0.16-1.54-0.46
		c-0.27-0.16-0.54-0.38-0.81-0.65c-0.66-0.66-0.98-1.46-0.95-2.4c0.02-0.94,0.47-1.84,1.34-2.71c0.85-0.86,1.78-1.32,2.77-1.39
		c1-0.07,1.86,0.26,2.61,1.01C106.39,422.5,106.67,422.96,106.84,423.49z M105.07,425.9c0.35-0.42,0.58-0.82,0.68-1.18
		c0.19-0.67,0-1.29-0.57-1.86c-0.41-0.41-0.9-0.6-1.47-0.58c-0.57,0.02-1.1,0.25-1.57,0.69L105.07,425.9z"/>
	<path d="M114.95,431.63c0.06,0.26,0.06,0.61,0.02,1.06l2.69-2.69l0.86,0.86l-7.33,7.33l-0.81-0.8l0.74-0.74
		c-0.54,0.12-1.02,0.11-1.45-0.03s-0.83-0.39-1.19-0.76c-0.59-0.59-0.85-1.35-0.79-2.28c0.07-0.93,0.51-1.81,1.34-2.64
		c0.78-0.78,1.65-1.25,2.61-1.42s1.81,0.11,2.54,0.84C114.6,430.76,114.85,431.19,114.95,431.63z M108.96,433.63
		c-0.14,0.62,0.05,1.2,0.58,1.73c0.41,0.41,0.93,0.57,1.55,0.48c0.62-0.09,1.27-0.47,1.93-1.14c0.67-0.67,1.03-1.31,1.08-1.9
		c0.05-0.6-0.13-1.1-0.53-1.5c-0.45-0.45-0.98-0.64-1.61-0.57c-0.62,0.07-1.27,0.43-1.94,1.1
		C109.46,432.41,109.11,433,108.96,433.63z"/>
	<path d="M121,437.64c0.17,0.53,0.21,1.03,0.12,1.49c-0.09,0.45-0.28,0.88-0.58,1.3c-0.19,0.3-0.56,0.72-1.09,1.25l-3.87-3.87
		c-0.53,0.56-0.83,1.12-0.92,1.68c-0.09,0.56,0.11,1.09,0.61,1.59c0.46,0.46,0.99,0.68,1.57,0.64c0.34-0.02,0.65-0.12,0.95-0.29
		l0.88,0.88c-0.22,0.17-0.51,0.31-0.89,0.42c-0.37,0.11-0.71,0.16-1.03,0.15c-0.53,0-1.05-0.16-1.54-0.46
		c-0.27-0.16-0.54-0.38-0.81-0.65c-0.66-0.66-0.98-1.46-0.95-2.4c0.02-0.94,0.47-1.84,1.34-2.71c0.85-0.86,1.78-1.32,2.77-1.39
		c1-0.07,1.86,0.26,2.61,1.01C120.55,436.66,120.82,437.11,121,437.64z M119.23,440.05c0.35-0.42,0.58-0.82,0.68-1.18
		c0.19-0.67,0-1.3-0.57-1.86c-0.41-0.41-0.9-0.6-1.47-0.58c-0.57,0.02-1.1,0.25-1.57,0.69L119.23,440.05z"/>
	<path d="M126.75,443.67c0.08,0.67-0.19,1.4-0.83,2.19l-0.87-0.87c0.28-0.38,0.43-0.77,0.46-1.18c0.03-0.41-0.17-0.82-0.58-1.24
		c-0.57-0.57-1.26-0.7-2.06-0.39c-0.52,0.2-1.05,0.57-1.58,1.1c-0.53,0.53-0.87,1.09-1.01,1.68c-0.14,0.59,0.03,1.13,0.52,1.61
		c0.37,0.37,0.78,0.55,1.22,0.54c0.44-0.01,0.9-0.17,1.38-0.48l0.87,0.87c-0.81,0.61-1.57,0.88-2.29,0.8
		c-0.73-0.07-1.4-0.42-2.02-1.04c-0.7-0.7-1-1.5-0.9-2.43c0.09-0.92,0.52-1.77,1.29-2.53c0.93-0.93,1.89-1.44,2.86-1.5
		c0.97-0.07,1.81,0.25,2.52,0.96C126.33,442.37,126.67,443,126.75,443.67z"/>
	<path d="M129.36,449.92c0.23,0.18,0.46,0.23,0.67,0.15c0.12-0.04,0.25-0.13,0.4-0.28c0.31-0.31,0.42-0.64,0.34-0.99
		c-0.08-0.36-0.32-0.73-0.72-1.14c-0.47-0.47-0.92-0.67-1.37-0.61c-0.25,0.03-0.53,0.17-0.84,0.41l-0.83-0.83
		c0.67-0.64,1.34-0.89,2.01-0.74c0.67,0.15,1.27,0.5,1.81,1.04c0.62,0.62,1.01,1.25,1.17,1.88c0.15,0.63-0.03,1.19-0.53,1.7
		l-3.07,3.07c-0.09,0.09-0.15,0.19-0.17,0.28c-0.02,0.09,0.03,0.2,0.16,0.33c0.04,0.04,0.09,0.08,0.14,0.13s0.12,0.09,0.18,0.14
		l-0.66,0.66c-0.18-0.1-0.31-0.18-0.39-0.24c-0.08-0.06-0.19-0.16-0.31-0.28c-0.31-0.31-0.42-0.64-0.34-1
		c0.04-0.19,0.16-0.4,0.34-0.65c-0.42,0.06-0.89,0-1.41-0.16c-0.52-0.17-0.98-0.45-1.39-0.87c-0.49-0.49-0.75-1.05-0.76-1.66
		c-0.01-0.61,0.2-1.15,0.65-1.6c0.49-0.49,1.03-0.72,1.61-0.68c0.58,0.04,1.15,0.27,1.71,0.71L129.36,449.92z M125.06,450.45
		c0.04,0.34,0.19,0.64,0.45,0.9c0.31,0.31,0.69,0.55,1.13,0.7c0.74,0.26,1.38,0.11,1.93-0.44l0.72-0.72
		c-0.18-0.04-0.38-0.12-0.6-0.25c-0.22-0.12-0.42-0.26-0.61-0.41l-0.61-0.47c-0.37-0.28-0.68-0.46-0.93-0.53
		c-0.43-0.12-0.82-0.01-1.16,0.33C125.13,449.82,125.02,450.11,125.06,450.45z"/>
	<path d="M137.6,453.95l0.99,0.99c-0.47,0.21-1.53,0.71-3.18,1.5c-1.24,0.59-2.26,1.06-3.05,1.42c-1.87,0.84-3.07,1.3-3.58,1.39
		c-0.51,0.09-1.02-0.13-1.54-0.65c-0.12-0.12-0.22-0.23-0.28-0.31c-0.06-0.08-0.12-0.18-0.2-0.31l0.82-0.82
		c0.11,0.2,0.2,0.34,0.26,0.42c0.06,0.08,0.12,0.15,0.17,0.2c0.17,0.17,0.31,0.26,0.45,0.28c0.13,0.02,0.26,0.02,0.4,0
		c0.04-0.01,0.24-0.09,0.58-0.23c0.35-0.14,0.6-0.25,0.77-0.32l3.51-7.45l1.01,1.01l-2.91,5.76L137.6,453.95z"/>
</g>
<g>
	<path d="M284.46,311.1c-0.74,1.43-1.21,2.48-1.43,3.16c-0.33,1.03-0.5,2.21-0.5,3.56c0,1.36,0.19,2.6,0.57,3.73
		c0.23,0.69,0.7,1.69,1.39,3h-0.85c-0.68-1.07-1.11-1.75-1.27-2.05c-0.16-0.29-0.34-0.7-0.53-1.2c-0.26-0.69-0.45-1.43-0.55-2.22
		c-0.05-0.41-0.08-0.8-0.08-1.17c0-1.39,0.22-2.62,0.65-3.71c0.28-0.69,0.85-1.72,1.73-3.09H284.46z"/>
	<path d="M290.06,314.3c0.22,0.14,0.48,0.39,0.76,0.74v-3.8h1.22v10.36h-1.14v-1.05c-0.29,0.46-0.64,0.8-1.04,1.01
		s-0.86,0.31-1.38,0.31c-0.84,0-1.56-0.35-2.17-1.06c-0.61-0.71-0.92-1.64-0.92-2.82c0-1.1,0.28-2.05,0.84-2.85
		c0.56-0.8,1.36-1.21,2.39-1.21C289.19,313.94,289.67,314.06,290.06,314.3z M287.23,319.95c0.34,0.54,0.89,0.82,1.64,0.82
		c0.58,0,1.06-0.25,1.44-0.76c0.38-0.5,0.56-1.23,0.56-2.17c0-0.95-0.19-1.66-0.58-2.11c-0.39-0.46-0.87-0.69-1.43-0.69
		c-0.63,0-1.15,0.24-1.54,0.73c-0.39,0.49-0.59,1.21-0.59,2.15C286.72,318.73,286.89,319.4,287.23,319.95z"/>
	<path d="M294.2,323.08c0.32-0.06,0.55-0.29,0.68-0.69c0.07-0.21,0.11-0.42,0.11-0.61c0-0.03,0-0.06,0-0.09
		c0-0.03-0.01-0.05-0.02-0.09h-0.77v-1.53h1.5v1.42c0,0.56-0.11,1.05-0.34,1.47c-0.22,0.42-0.61,0.68-1.17,0.78V323.08z"/>
	<path d="M297.83,314.1h1.24v1c0.25-0.34,0.53-0.61,0.83-0.79c0.43-0.28,0.93-0.42,1.51-0.42c0.86,0,1.58,0.33,2.18,0.98
		s0.9,1.59,0.9,2.8c0,1.64-0.43,2.81-1.29,3.52c-0.55,0.45-1.18,0.67-1.91,0.67c-0.57,0-1.05-0.12-1.43-0.37
		c-0.23-0.14-0.48-0.38-0.76-0.72v3.85h-1.27V314.1z M302.59,320.01c0.39-0.49,0.59-1.23,0.59-2.22c0-0.6-0.09-1.12-0.26-1.55
		c-0.33-0.83-0.93-1.25-1.81-1.25c-0.88,0-1.48,0.44-1.81,1.32c-0.17,0.47-0.26,1.06-0.26,1.79c0,0.58,0.09,1.08,0.26,1.48
		c0.33,0.78,0.93,1.17,1.81,1.17C301.7,320.75,302.2,320.5,302.59,320.01z"/>
	<path d="M305.51,324.54c0.75-1.45,1.23-2.51,1.44-3.18c0.33-1.01,0.49-2.19,0.49-3.54c0-1.35-0.19-2.59-0.57-3.72
		c-0.23-0.69-0.7-1.69-1.38-3h0.85c0.72,1.15,1.16,1.87,1.31,2.13s0.32,0.64,0.5,1.11c0.23,0.59,0.39,1.17,0.48,1.74
		c0.1,0.57,0.14,1.12,0.14,1.65c0,1.39-0.22,2.62-0.66,3.71c-0.28,0.7-0.85,1.73-1.72,3.09H305.51z"/>
</g>
<g>
	<path d="M327.87,262.03c-1.53,0.49-2.61,0.9-3.25,1.22c-0.96,0.49-1.92,1.21-2.87,2.16c-0.96,0.96-1.7,1.97-2.23,3.04
		c-0.32,0.66-0.7,1.69-1.14,3.1l-0.6-0.6c0.27-1.24,0.45-2.02,0.55-2.35c0.09-0.32,0.25-0.73,0.47-1.23
		c0.31-0.68,0.7-1.33,1.18-1.96c0.25-0.32,0.51-0.62,0.77-0.88c0.98-0.98,2.01-1.7,3.08-2.16c0.68-0.29,1.82-0.61,3.41-0.96
		L327.87,262.03z"/>
	<path d="M326.81,265.16l0.85,0.85l-0.76,0.76c0.56-0.06,1.05-0.02,1.47,0.13c0.42,0.15,0.8,0.39,1.14,0.74
		c0.75,0.75,1,1.53,0.74,2.32c-0.14,0.43-0.48,0.92-1.02,1.46l-3.42,3.42l-0.91-0.91l3.36-3.36c0.32-0.32,0.54-0.63,0.64-0.93
		c0.17-0.49,0.05-0.95-0.37-1.36c-0.21-0.21-0.41-0.37-0.59-0.46c-0.32-0.17-0.68-0.24-1.08-0.21c-0.33,0.03-0.6,0.11-0.83,0.25
		c-0.23,0.14-0.52,0.39-0.87,0.74l-2.79,2.79l-0.89-0.89L326.81,265.16z"/>
	<path d="M326.29,277.38c0.27,0.19,0.59,0.19,0.97,0c0.2-0.1,0.37-0.22,0.51-0.36c0.02-0.02,0.04-0.04,0.06-0.06
		c0.02-0.02,0.03-0.04,0.05-0.07l-0.54-0.54l1.08-1.08l1.06,1.06l-1,1c-0.39,0.39-0.82,0.66-1.28,0.8
		c-0.46,0.14-0.92,0.05-1.38-0.27L326.29,277.38z"/>
	<path d="M335.2,273.6l0.88,0.88l-0.71,0.71c0.42-0.06,0.8-0.05,1.15,0.03c0.5,0.1,0.96,0.36,1.36,0.77
		c0.61,0.61,0.89,1.35,0.85,2.23c-0.04,0.88-0.49,1.76-1.35,2.61c-1.16,1.16-2.29,1.68-3.4,1.57c-0.7-0.07-1.31-0.36-1.82-0.88
		c-0.4-0.4-0.65-0.83-0.75-1.28c-0.06-0.26-0.07-0.61-0.02-1.05l-2.72,2.72l-0.9-0.9L335.2,273.6z M334.4,281.14
		c0.63-0.07,1.29-0.46,1.99-1.15c0.42-0.42,0.73-0.85,0.91-1.28c0.35-0.82,0.22-1.54-0.4-2.16c-0.62-0.62-1.36-0.74-2.21-0.35
		c-0.46,0.21-0.94,0.57-1.45,1.08c-0.41,0.41-0.7,0.82-0.87,1.23c-0.32,0.78-0.17,1.48,0.45,2.1
		C333.25,281.04,333.77,281.21,334.4,281.14z"/>
	<path d="M333.26,286.41c1.55-0.5,2.64-0.91,3.27-1.23c0.95-0.48,1.9-1.2,2.85-2.16s1.7-1.97,2.23-3.03c0.32-0.66,0.7-1.69,1.14-3.1
		l0.6,0.6c-0.3,1.33-0.5,2.14-0.58,2.44s-0.23,0.68-0.44,1.14c-0.25,0.57-0.55,1.1-0.89,1.57c-0.34,0.47-0.69,0.9-1.07,1.27
		c-0.98,0.98-2.01,1.7-3.09,2.16c-0.69,0.3-1.82,0.62-3.4,0.96L333.26,286.41z"/>
</g>
<g>
	<path d="M172.86,253.5c-0.74,1.43-1.21,2.48-1.43,3.16c-0.33,1.03-0.5,2.21-0.5,3.56c0,1.36,0.19,2.6,0.57,3.73
		c0.23,0.69,0.7,1.69,1.39,3h-0.85c-0.68-1.07-1.11-1.75-1.27-2.05s-0.34-0.7-0.53-1.2c-0.26-0.69-0.45-1.43-0.55-2.22
		c-0.05-0.41-0.08-0.8-0.08-1.17c0-1.39,0.22-2.62,0.65-3.71c0.28-0.69,0.85-1.72,1.73-3.09H172.86z"/>
	<path d="M178.46,256.7c0.22,0.14,0.48,0.39,0.76,0.74v-3.8h1.22V264h-1.14v-1.05c-0.29,0.46-0.64,0.8-1.04,1.01
		c-0.4,0.21-0.86,0.31-1.38,0.31c-0.84,0-1.56-0.35-2.17-1.06c-0.61-0.71-0.92-1.64-0.92-2.82c0-1.1,0.28-2.05,0.84-2.85
		c0.56-0.8,1.36-1.21,2.39-1.21C177.59,256.34,178.07,256.46,178.46,256.7z M175.64,262.35c0.34,0.54,0.89,0.82,1.64,0.82
		c0.58,0,1.06-0.25,1.44-0.76c0.38-0.5,0.56-1.23,0.56-2.17c0-0.95-0.19-1.66-0.58-2.11s-0.87-0.69-1.43-0.69
		c-0.63,0-1.15,0.24-1.54,0.73c-0.39,0.49-0.59,1.21-0.59,2.15C175.13,261.13,175.3,261.8,175.64,262.35z"/>
	<path d="M182.6,265.48c0.32-0.06,0.55-0.29,0.68-0.69c0.07-0.21,0.11-0.42,0.11-0.61c0-0.03,0-0.06,0-0.09
		c0-0.03-0.01-0.06-0.02-0.09h-0.77v-1.53h1.5v1.42c0,0.56-0.11,1.05-0.34,1.47c-0.22,0.42-0.61,0.68-1.17,0.78V265.48z"/>
	<path d="M186.33,256.47h1.2v1.07c0.36-0.44,0.73-0.76,1.13-0.95c0.4-0.19,0.84-0.29,1.33-0.29c1.07,0,1.79,0.37,2.17,1.12
		c0.21,0.41,0.31,0.99,0.31,1.75V264h-1.29v-4.75c0-0.46-0.07-0.83-0.2-1.11c-0.23-0.47-0.63-0.7-1.22-0.7
		c-0.3,0-0.55,0.03-0.74,0.09c-0.35,0.1-0.65,0.31-0.91,0.62c-0.21,0.25-0.35,0.51-0.41,0.77c-0.06,0.26-0.09,0.64-0.09,1.14V264
		h-1.27V256.47z"/>
	<path d="M193.91,266.94c0.75-1.45,1.23-2.51,1.44-3.18c0.33-1.01,0.49-2.19,0.49-3.54s-0.19-2.59-0.57-3.72
		c-0.23-0.69-0.7-1.69-1.39-3h0.85c0.72,1.15,1.16,1.86,1.31,2.13s0.32,0.64,0.5,1.11c0.23,0.59,0.39,1.16,0.48,1.74
		c0.1,0.57,0.14,1.12,0.14,1.65c0,1.39-0.22,2.63-0.66,3.71c-0.28,0.7-0.85,1.73-1.72,3.09H193.91z"/>
</g>
<g>
	<path d="M302.84,51.79l0.87,0.87l-2.46,2.46l6.43,6.43l-1,1l-6.43-6.43l-2.46,2.46l-0.87-0.87L302.84,51.79z"/>
	<path d="M308.87,50.78c0.93-0.01,1.84,0.42,2.72,1.31c0.86,0.86,1.36,1.77,1.5,2.75c0.14,0.97-0.22,1.9-1.09,2.77
		c-0.73,0.73-1.55,1.06-2.48,0.99c-0.92-0.07-1.8-0.52-2.64-1.35c-0.89-0.89-1.38-1.83-1.46-2.81c-0.08-0.98,0.26-1.85,1.02-2.61
		C307.14,51.14,307.95,50.8,308.87,50.78z M311.86,54.88c-0.23-0.67-0.62-1.27-1.17-1.82c-0.5-0.5-0.98-0.82-1.45-0.98
		c-0.74-0.24-1.41-0.06-2.02,0.55c-0.54,0.54-0.73,1.14-0.55,1.81c0.17,0.66,0.55,1.29,1.14,1.88c0.57,0.57,1.16,0.92,1.78,1.05
		c0.62,0.13,1.2-0.07,1.74-0.6C311.91,56.17,312.09,55.54,311.86,54.88z"/>
	<path d="M311.09,43.54l3.16-3.16c0.86-0.86,1.73-1.22,2.6-1.07c0.51,0.09,0.97,0.33,1.36,0.72c0.46,0.46,0.71,0.97,0.74,1.53
		c0.02,0.29-0.03,0.63-0.16,1.01c0.52-0.23,0.96-0.35,1.32-0.36c0.65-0.01,1.25,0.27,1.81,0.83c0.47,0.47,0.75,1.05,0.83,1.72
		c0.12,1.01-0.29,2-1.26,2.97l-3.11,3.11L311.09,43.54z M316.97,43.84c0.42-0.42,0.69-0.81,0.81-1.16c0.19-0.55,0.04-1.06-0.43-1.54
		c-0.48-0.48-0.99-0.6-1.55-0.38c-0.31,0.13-0.69,0.41-1.12,0.85l-1.78,1.78l2.26,2.26L316.97,43.84z M320.67,46.88
		c0.61-0.61,0.87-1.22,0.78-1.84c-0.06-0.39-0.25-0.74-0.56-1.05c-0.53-0.53-1.13-0.65-1.8-0.37c-0.36,0.15-0.74,0.44-1.16,0.85
		l-1.98,1.98l2.57,2.57L320.67,46.88z"/>
	<path d="M323.2,35.68c0.53-0.17,1.03-0.21,1.49-0.12c0.45,0.09,0.88,0.29,1.29,0.58c0.3,0.19,0.72,0.56,1.25,1.09l-3.87,3.87
		c0.56,0.53,1.12,0.83,1.68,0.92c0.56,0.09,1.09-0.11,1.59-0.61c0.46-0.46,0.68-0.99,0.64-1.57c-0.02-0.33-0.12-0.65-0.3-0.95
		l0.88-0.88c0.17,0.22,0.31,0.51,0.42,0.89c0.11,0.37,0.16,0.71,0.15,1.03c0,0.53-0.16,1.05-0.46,1.54
		c-0.16,0.27-0.38,0.54-0.65,0.81c-0.66,0.66-1.46,0.98-2.4,0.95s-1.84-0.47-2.71-1.34c-0.85-0.85-1.32-1.78-1.39-2.77
		s0.26-1.86,1.01-2.61C322.22,36.13,322.67,35.86,323.2,35.68z M325.61,37.45c-0.42-0.35-0.82-0.58-1.18-0.68
		c-0.67-0.19-1.29,0-1.86,0.57c-0.41,0.41-0.6,0.9-0.58,1.47c0.02,0.57,0.25,1.1,0.69,1.57L325.61,37.45z"/>
	<path d="M325.88,24.27l0.78,0.78c-0.01,0.45,0.08,1.14,0.25,2.07c0.17,0.93,0.43,1.86,0.77,2.79c0.33,0.91,0.68,1.69,1.04,2.35
		c0.23,0.42,0.64,1.08,1.21,1.96l-0.99,0.99c-1.13-1.58-1.99-3.43-2.57-5.55c-0.33-1.24-0.54-2.4-0.61-3.48l-3.94,3.94l-0.9-0.9
		L325.88,24.27z"/>
</g>
<g>
	<path d="M444.73,53.44l5.07-5.07l0.9,0.9l-4.08,4.08l2.22,2.22l3.58-3.58l0.87,0.87l-3.58,3.58l3.32,3.32l-0.99,0.99L444.73,53.44z
		"/>
	<path d="M452.74,49.39l0.85-0.85l0.92,0.92c-0.11-0.25-0.16-0.64-0.14-1.17s0.2-0.97,0.55-1.33c0.02-0.02,0.05-0.04,0.09-0.08
		c0.04-0.04,0.12-0.1,0.22-0.18l0.94,0.94c-0.06,0.04-0.12,0.09-0.17,0.13c-0.05,0.04-0.1,0.09-0.15,0.14
		c-0.45,0.45-0.65,0.94-0.6,1.47s0.26,0.99,0.64,1.37l3.06,3.06l-0.89,0.9L452.74,49.39z"/>
	<path d="M460.49,42.69c0.93-0.01,1.84,0.42,2.72,1.31c0.86,0.86,1.36,1.77,1.5,2.75c0.15,0.97-0.22,1.9-1.09,2.77
		c-0.73,0.73-1.55,1.06-2.48,0.99c-0.92-0.07-1.8-0.52-2.64-1.35c-0.89-0.89-1.38-1.83-1.46-2.81c-0.08-0.98,0.26-1.85,1.02-2.61
		C458.76,43.05,459.56,42.71,460.49,42.69z M463.47,46.79c-0.23-0.67-0.62-1.27-1.17-1.82c-0.5-0.5-0.98-0.82-1.45-0.98
		c-0.74-0.24-1.41-0.06-2.02,0.55c-0.54,0.54-0.73,1.14-0.55,1.81c0.17,0.66,0.55,1.29,1.14,1.88c0.57,0.57,1.16,0.92,1.78,1.05
		c0.62,0.13,1.2-0.07,1.74-0.6C463.53,48.08,463.7,47.45,463.47,46.79z"/>
	<path d="M461.77,40.36l0.88-0.89l0.75,0.76c-0.05-0.47-0.05-0.86,0-1.15c0.09-0.5,0.33-0.93,0.7-1.31
		c0.42-0.42,0.87-0.66,1.34-0.71c0.26-0.03,0.57,0.02,0.92,0.13c-0.09-0.48-0.06-0.93,0.07-1.33c0.13-0.41,0.36-0.78,0.7-1.11
		c0.72-0.72,1.46-0.94,2.24-0.69c0.42,0.14,0.86,0.44,1.33,0.91l3.54,3.55l-0.93,0.93l-3.7-3.7c-0.35-0.35-0.69-0.51-1-0.46
		c-0.31,0.04-0.59,0.19-0.85,0.45c-0.35,0.35-0.54,0.77-0.55,1.26c-0.02,0.49,0.25,1.01,0.8,1.56l3.1,3.1l-0.91,0.91l-3.48-3.48
		c-0.36-0.36-0.67-0.58-0.92-0.66c-0.38-0.11-0.76,0.02-1.13,0.39c-0.34,0.34-0.51,0.78-0.53,1.32c-0.02,0.54,0.32,1.15,1.01,1.84
		l2.82,2.82l-0.89,0.9L461.77,40.36z"/>
	<path d="M471.19,26.97l3.16-3.16c0.86-0.86,1.73-1.22,2.6-1.07c0.51,0.09,0.97,0.33,1.36,0.72c0.46,0.46,0.71,0.97,0.74,1.53
		c0.02,0.29-0.03,0.63-0.16,1.01c0.52-0.23,0.96-0.35,1.32-0.36c0.65-0.01,1.25,0.27,1.81,0.83c0.47,0.47,0.75,1.05,0.83,1.72
		c0.13,1.01-0.29,2-1.26,2.97l-3.11,3.11L471.19,26.97z M477.07,27.27c0.42-0.42,0.69-0.81,0.81-1.16c0.19-0.55,0.04-1.06-0.43-1.54
		c-0.48-0.48-1-0.6-1.55-0.38c-0.31,0.13-0.69,0.41-1.12,0.85l-1.78,1.78l2.26,2.26L477.07,27.27z M480.77,30.31
		c0.61-0.61,0.87-1.23,0.78-1.84c-0.06-0.39-0.25-0.74-0.56-1.05c-0.53-0.53-1.13-0.65-1.8-0.37c-0.36,0.15-0.74,0.44-1.16,0.85
		l-1.98,1.98l2.57,2.57L480.77,30.31z"/>
	<path d="M483.3,19.11c0.53-0.17,1.03-0.21,1.49-0.12c0.45,0.09,0.88,0.29,1.29,0.58c0.3,0.19,0.72,0.56,1.25,1.09l-3.87,3.87
		c0.56,0.53,1.12,0.83,1.68,0.92s1.09-0.11,1.59-0.61c0.46-0.46,0.68-0.99,0.64-1.57c-0.02-0.33-0.12-0.65-0.29-0.95l0.88-0.88
		c0.17,0.22,0.31,0.51,0.42,0.88c0.11,0.37,0.16,0.71,0.15,1.03c0,0.53-0.16,1.05-0.46,1.54c-0.16,0.27-0.38,0.54-0.65,0.81
		c-0.66,0.66-1.46,0.98-2.4,0.95s-1.84-0.47-2.71-1.34c-0.85-0.85-1.32-1.78-1.39-2.77s0.26-1.86,1.01-2.61
		C482.32,19.56,482.77,19.29,483.3,19.11z M485.71,20.88c-0.42-0.35-0.82-0.58-1.18-0.68c-0.67-0.19-1.3,0-1.86,0.57
		c-0.41,0.41-0.6,0.9-0.58,1.47c0.02,0.57,0.25,1.1,0.69,1.57L485.71,20.88z"/>
	<path d="M485.98,7.7l0.78,0.78c-0.01,0.45,0.08,1.14,0.25,2.07c0.17,0.93,0.43,1.86,0.77,2.79c0.33,0.91,0.68,1.69,1.04,2.35
		c0.23,0.42,0.64,1.08,1.21,1.96l-0.99,0.99c-1.13-1.58-1.99-3.43-2.57-5.55c-0.33-1.24-0.54-2.4-0.61-3.47l-3.94,3.94l-0.9-0.9
		L485.98,7.7z"/>
</g>
<g>
	<path d="M474.73,64.24l5.07-5.07l0.89,0.9l-4.08,4.08l2.22,2.22l3.58-3.58l0.87,0.87l-3.58,3.58l3.32,3.32l-0.99,0.99L474.73,64.24
		z"/>
	<path d="M482.74,60.19l0.85-0.85l0.92,0.92c-0.11-0.25-0.16-0.64-0.14-1.17c0.02-0.53,0.2-0.97,0.55-1.32
		c0.02-0.02,0.05-0.04,0.09-0.08c0.04-0.04,0.12-0.1,0.22-0.18l0.94,0.94c-0.06,0.04-0.12,0.09-0.17,0.13s-0.1,0.09-0.15,0.14
		c-0.45,0.45-0.65,0.94-0.6,1.47c0.05,0.53,0.26,0.99,0.64,1.37l3.06,3.06l-0.89,0.89L482.74,60.19z"/>
	<path d="M490.49,53.49c0.93-0.01,1.84,0.42,2.72,1.31c0.86,0.86,1.36,1.77,1.5,2.75c0.14,0.97-0.22,1.9-1.09,2.77
		c-0.73,0.73-1.55,1.06-2.48,0.99s-1.8-0.52-2.64-1.35c-0.89-0.89-1.38-1.83-1.46-2.81c-0.08-0.98,0.26-1.85,1.02-2.61
		C488.76,53.85,489.57,53.51,490.49,53.49z M493.48,57.59c-0.23-0.67-0.62-1.27-1.17-1.82c-0.5-0.5-0.98-0.82-1.45-0.98
		c-0.74-0.24-1.41-0.06-2.02,0.55c-0.54,0.54-0.73,1.14-0.55,1.81c0.17,0.66,0.55,1.29,1.14,1.88c0.57,0.57,1.16,0.92,1.78,1.05
		c0.62,0.13,1.2-0.07,1.74-0.6C493.53,58.88,493.71,58.25,493.48,57.59z"/>
	<path d="M491.77,51.16l0.89-0.88l0.75,0.76c-0.05-0.47-0.05-0.86,0-1.15c0.09-0.5,0.33-0.93,0.7-1.31
		c0.42-0.42,0.87-0.66,1.34-0.71c0.26-0.03,0.57,0.02,0.92,0.13c-0.09-0.48-0.06-0.93,0.07-1.34c0.13-0.41,0.36-0.78,0.7-1.11
		c0.72-0.72,1.46-0.94,2.24-0.69c0.42,0.14,0.86,0.44,1.33,0.92l3.55,3.55l-0.93,0.93l-3.7-3.7c-0.35-0.35-0.69-0.51-1-0.46
		c-0.31,0.05-0.59,0.2-0.85,0.45c-0.35,0.35-0.54,0.77-0.55,1.26s0.25,1.01,0.8,1.56l3.1,3.1l-0.91,0.91l-3.48-3.48
		c-0.36-0.36-0.67-0.58-0.92-0.66c-0.38-0.11-0.76,0.02-1.13,0.39c-0.34,0.34-0.51,0.78-0.53,1.31c-0.01,0.54,0.32,1.15,1.01,1.84
		l2.83,2.82l-0.9,0.9L491.77,51.16z"/>
	<path d="M501.19,37.77l3.16-3.16c0.86-0.86,1.73-1.22,2.6-1.07c0.52,0.09,0.97,0.33,1.37,0.72c0.46,0.46,0.71,0.97,0.74,1.53
		c0.02,0.29-0.03,0.63-0.16,1.01c0.52-0.23,0.96-0.35,1.32-0.36c0.65-0.01,1.25,0.27,1.81,0.83c0.47,0.47,0.75,1.05,0.83,1.72
		c0.13,1.01-0.29,2-1.26,2.97l-3.11,3.11L501.19,37.77z M507.07,38.07c0.42-0.42,0.69-0.81,0.81-1.16c0.19-0.55,0.04-1.06-0.43-1.54
		c-0.48-0.48-1-0.6-1.55-0.38c-0.31,0.13-0.69,0.41-1.12,0.85l-1.78,1.78l2.26,2.26L507.07,38.07z M510.77,41.11
		c0.61-0.61,0.87-1.22,0.78-1.84c-0.06-0.39-0.24-0.74-0.56-1.05c-0.53-0.53-1.13-0.65-1.8-0.37c-0.36,0.15-0.74,0.44-1.16,0.85
		l-1.98,1.98l2.57,2.57L510.77,41.11z"/>
	<path d="M513.3,29.91c0.53-0.17,1.03-0.21,1.49-0.12c0.45,0.09,0.88,0.29,1.3,0.58c0.3,0.19,0.72,0.56,1.25,1.09l-3.87,3.87
		c0.56,0.53,1.12,0.83,1.68,0.92c0.56,0.09,1.09-0.11,1.59-0.61c0.46-0.46,0.68-0.99,0.64-1.57c-0.02-0.33-0.12-0.65-0.29-0.95
		l0.88-0.88c0.17,0.22,0.31,0.51,0.42,0.89s0.16,0.71,0.15,1.03c0,0.53-0.16,1.05-0.46,1.54c-0.16,0.27-0.38,0.54-0.65,0.81
		c-0.66,0.66-1.46,0.98-2.4,0.95c-0.94-0.02-1.84-0.47-2.71-1.34c-0.85-0.85-1.32-1.78-1.39-2.77c-0.07-0.99,0.26-1.86,1.01-2.61
		C512.32,30.36,512.77,30.09,513.3,29.91z M515.72,31.68c-0.42-0.35-0.82-0.58-1.18-0.68c-0.67-0.19-1.29,0-1.86,0.57
		c-0.41,0.41-0.6,0.9-0.58,1.47s0.25,1.1,0.69,1.57L515.72,31.68z"/>
	<path d="M514.46,25.69c-0.53,0-1-0.22-1.43-0.64c-0.53-0.53-0.79-1.18-0.79-1.94s0.36-1.5,1.06-2.21c0.68-0.68,1.4-1.04,2.14-1.06
		c0.75-0.03,1.36,0.2,1.84,0.68c0.45,0.44,0.69,0.92,0.74,1.42c0.03,0.28-0.01,0.63-0.13,1.04c0.43-0.16,0.82-0.24,1.17-0.23
		c0.65,0.02,1.24,0.29,1.77,0.82c0.63,0.63,0.95,1.37,0.96,2.22c0.02,0.86-0.36,1.67-1.13,2.44c-0.69,0.69-1.47,1.09-2.32,1.19
		c-0.86,0.1-1.64-0.2-2.36-0.92c-0.42-0.42-0.68-0.89-0.78-1.4c-0.1-0.51-0.03-1.05,0.21-1.62
		C515.06,25.62,514.74,25.7,514.46,25.69z M516.88,22.67c0-0.44-0.15-0.82-0.46-1.12c-0.27-0.27-0.62-0.4-1.05-0.42
		c-0.43-0.01-0.87,0.2-1.3,0.63c-0.43,0.43-0.63,0.85-0.6,1.27c0.03,0.42,0.2,0.77,0.5,1.07c0.34,0.34,0.72,0.47,1.16,0.42
		c0.44-0.06,0.83-0.26,1.16-0.59C516.68,23.53,516.88,23.11,516.88,22.67z M520.56,26.02c0.05-0.5-0.15-0.97-0.59-1.41
		c-0.46-0.46-0.95-0.67-1.47-0.63c-0.52,0.04-1,0.29-1.44,0.73c-0.43,0.43-0.66,0.9-0.68,1.41c-0.03,0.51,0.18,0.99,0.61,1.42
		c0.37,0.37,0.82,0.57,1.33,0.59c0.52,0.02,1.03-0.23,1.55-0.74C520.28,26.98,520.51,26.52,520.56,26.02z"/>
</g>
<g>
	<path d="M479.4,97.27l5.07-5.07l0.89,0.89l-4.08,4.08l2.22,2.22l3.58-3.58l0.87,0.87l-3.58,3.58l3.32,3.32l-0.99,0.99L479.4,97.27z
		"/>
	<path d="M487.4,93.22l0.85-0.85l0.92,0.92c-0.11-0.25-0.16-0.64-0.14-1.17c0.02-0.53,0.2-0.97,0.55-1.33
		c0.02-0.02,0.05-0.04,0.09-0.08c0.04-0.04,0.12-0.1,0.22-0.18l0.94,0.94c-0.06,0.04-0.12,0.09-0.17,0.13
		c-0.05,0.04-0.1,0.09-0.15,0.14c-0.45,0.45-0.65,0.94-0.6,1.47c0.05,0.53,0.26,0.99,0.64,1.36l3.06,3.06l-0.89,0.9L487.4,93.22z"/>
	<path d="M495.16,86.53c0.93-0.01,1.84,0.42,2.72,1.31c0.86,0.86,1.36,1.77,1.5,2.75c0.14,0.97-0.22,1.9-1.09,2.77
		c-0.73,0.73-1.55,1.06-2.48,0.99c-0.92-0.07-1.8-0.52-2.64-1.35c-0.89-0.89-1.38-1.83-1.46-2.81c-0.08-0.98,0.26-1.85,1.02-2.61
		C493.43,86.89,494.23,86.54,495.16,86.53z M498.14,90.62c-0.23-0.67-0.62-1.27-1.17-1.82c-0.5-0.5-0.98-0.82-1.45-0.98
		c-0.74-0.24-1.41-0.06-2.02,0.55c-0.54,0.54-0.73,1.14-0.55,1.8s0.55,1.29,1.14,1.88c0.57,0.57,1.16,0.92,1.79,1.05
		c0.62,0.13,1.2-0.07,1.74-0.6C498.2,91.91,498.37,91.29,498.14,90.62z"/>
	<path d="M496.43,84.19l0.88-0.89l0.76,0.76c-0.05-0.47-0.05-0.86,0-1.15c0.09-0.5,0.33-0.93,0.7-1.31
		c0.42-0.42,0.87-0.66,1.34-0.71c0.26-0.03,0.57,0.02,0.92,0.13c-0.09-0.48-0.06-0.93,0.07-1.34c0.13-0.41,0.36-0.78,0.7-1.11
		c0.72-0.72,1.46-0.94,2.24-0.69c0.42,0.14,0.86,0.44,1.33,0.92l3.54,3.54l-0.93,0.93l-3.7-3.7c-0.35-0.35-0.69-0.51-1-0.46
		c-0.31,0.04-0.59,0.19-0.85,0.45c-0.35,0.35-0.54,0.77-0.55,1.26c-0.02,0.49,0.25,1.01,0.8,1.56l3.1,3.1l-0.91,0.91l-3.48-3.48
		c-0.36-0.36-0.67-0.58-0.92-0.66c-0.38-0.11-0.76,0.02-1.13,0.39c-0.34,0.34-0.51,0.78-0.53,1.31c-0.02,0.54,0.32,1.15,1.01,1.84
		l2.82,2.82l-0.89,0.9L496.43,84.19z"/>
	<path d="M505.89,70.78l0.99-0.99l6.43,6.43l3.66-3.66l0.87,0.87l-4.65,4.65L505.89,70.78z"/>
	<path d="M511.43,65.24l0.91-0.91l1.01,1.01l-0.91,0.91L511.43,65.24z M513.43,67.24l0.91-0.91l5.3,5.3l-0.91,0.91L513.43,67.24z"/>
	<path d="M516.12,56.06l0.78,0.78c-0.01,0.45,0.08,1.14,0.25,2.07c0.17,0.93,0.43,1.86,0.77,2.79c0.33,0.91,0.68,1.69,1.04,2.35
		c0.23,0.42,0.64,1.08,1.21,1.96L519.18,67c-1.13-1.58-1.99-3.43-2.57-5.55c-0.33-1.24-0.54-2.4-0.61-3.47l-3.94,3.94l-0.9-0.9
		L516.12,56.06z"/>
</g>
<g>
	<path d="M489.31,244.42l0.87,0.87l-2.46,2.46l6.43,6.43l-1,1l-6.43-6.43l-2.46,2.46l-0.87-0.87L489.31,244.42z"/>
	<path d="M495.34,243.41c0.93-0.01,1.84,0.42,2.72,1.31c0.86,0.86,1.36,1.77,1.5,2.75c0.15,0.97-0.22,1.9-1.09,2.77
		c-0.73,0.73-1.55,1.06-2.48,0.99c-0.92-0.07-1.8-0.52-2.64-1.35c-0.89-0.89-1.38-1.83-1.46-2.81c-0.08-0.98,0.26-1.85,1.02-2.61
		C493.61,243.78,494.41,243.43,495.34,243.41z M498.32,247.51c-0.23-0.67-0.62-1.27-1.17-1.82c-0.5-0.5-0.98-0.82-1.45-0.98
		c-0.74-0.24-1.41-0.06-2.02,0.55c-0.54,0.54-0.73,1.14-0.56,1.8c0.17,0.66,0.55,1.29,1.14,1.88c0.57,0.57,1.16,0.92,1.78,1.05
		c0.62,0.13,1.2-0.07,1.74-0.6C498.38,248.8,498.56,248.18,498.32,247.51z"/>
	<path d="M497.58,236.15l0.99-0.99l6.43,6.43l3.66-3.66l0.87,0.87l-4.65,4.65L497.58,236.15z"/>
	<path d="M503.13,230.61l0.91-0.91l1.01,1.01l-0.91,0.91L503.13,230.61z M505.13,232.61l0.91-0.91l5.3,5.3l-0.91,0.91L505.13,232.61
		z"/>
	<path d="M507.82,221.43l0.78,0.78c-0.01,0.45,0.08,1.14,0.25,2.07c0.17,0.93,0.43,1.86,0.77,2.79c0.33,0.91,0.68,1.69,1.04,2.35
		c0.23,0.42,0.64,1.08,1.21,1.96l-0.99,0.99c-1.13-1.58-1.99-3.43-2.57-5.55c-0.33-1.24-0.54-2.4-0.61-3.47l-3.94,3.94l-0.9-0.9
		L507.82,221.43z"/>
</g>
<g>
	<path d="M57.03,53.87h7.5v1.27H58.4v3.14h5.67v1.2H58.4v3.5h6.24v1.23h-7.6V53.87z"/>
	<path d="M65.62,56.67h1.64l1.73,2.65l1.75-2.65l1.54,0.04l-2.54,3.63l2.65,3.86h-1.62l-1.87-2.83l-1.81,2.83h-1.6l2.65-3.86
		L65.62,56.67z"/>
	<path d="M78.99,57.42c0.67,0.65,1,1.6,1,2.85c0,1.21-0.29,2.22-0.88,3.01s-1.5,1.19-2.73,1.19c-1.03,0-1.85-0.35-2.45-1.05
		c-0.6-0.7-0.91-1.64-0.91-2.82c0-1.26,0.32-2.27,0.96-3.02c0.64-0.75,1.49-1.12,2.57-1.12C77.51,56.45,78.32,56.77,78.99,57.42z
		 M78.2,62.43c0.31-0.63,0.46-1.34,0.46-2.12c0-0.7-0.11-1.27-0.33-1.71c-0.35-0.69-0.96-1.04-1.82-1.04
		c-0.77,0-1.32,0.29-1.67,0.88c-0.35,0.59-0.52,1.3-0.52,2.14c0,0.8,0.17,1.47,0.52,2c0.35,0.53,0.9,0.8,1.65,0.8
		C77.33,63.38,77.9,63.06,78.2,62.43z"/>
	<path d="M86.19,56.88c0.5,0.25,0.88,0.58,1.14,0.97c0.25,0.38,0.42,0.82,0.5,1.33c0.07,0.35,0.11,0.9,0.11,1.66h-5.48
		c0.02,0.77,0.2,1.38,0.54,1.84s0.85,0.69,1.56,0.69c0.66,0,1.18-0.22,1.57-0.66c0.22-0.25,0.37-0.55,0.46-0.88h1.24
		c-0.03,0.28-0.14,0.58-0.33,0.92c-0.19,0.34-0.39,0.62-0.62,0.83c-0.38,0.38-0.85,0.63-1.42,0.76c-0.3,0.07-0.64,0.11-1.03,0.11
		c-0.93,0-1.72-0.34-2.37-1.02c-0.65-0.68-0.97-1.64-0.97-2.87c0-1.21,0.33-2.19,0.98-2.95c0.65-0.75,1.5-1.13,2.56-1.13
		C85.18,56.5,85.69,56.63,86.19,56.88z M86.65,59.83c-0.05-0.55-0.17-0.99-0.36-1.31c-0.34-0.61-0.92-0.91-1.72-0.91
		c-0.58,0-1.06,0.21-1.45,0.63s-0.6,0.95-0.62,1.6H86.65z"/>
	<path d="M89.59,56.67h1.2v1.3c0.1-0.25,0.34-0.56,0.72-0.92s0.83-0.54,1.33-0.54c0.02,0,0.06,0,0.12,0.01
		c0.06,0,0.15,0.01,0.29,0.03v1.34c-0.07-0.01-0.14-0.02-0.21-0.03c-0.06,0-0.13-0.01-0.21-0.01c-0.64,0-1.13,0.21-1.47,0.62
		s-0.51,0.88-0.51,1.42v4.33h-1.27V56.67z"/>
	<path d="M98.53,56.97c0.24,0.16,0.48,0.4,0.73,0.72v-0.95h1.17v6.85c0,0.96-0.14,1.71-0.42,2.26c-0.52,1.02-1.51,1.53-2.96,1.53
		c-0.81,0-1.49-0.18-2.04-0.54s-0.86-0.93-0.93-1.71h1.29c0.06,0.34,0.18,0.6,0.36,0.78c0.28,0.28,0.73,0.42,1.34,0.42
		c0.97,0,1.6-0.34,1.9-1.03c0.18-0.4,0.26-1.12,0.25-2.16c-0.25,0.38-0.56,0.67-0.91,0.86s-0.82,0.28-1.41,0.28
		c-0.81,0-1.52-0.29-2.13-0.87s-0.91-1.54-0.91-2.87c0-1.26,0.31-2.25,0.92-2.95c0.61-0.71,1.35-1.06,2.22-1.06
		C97.58,56.54,98.09,56.68,98.53,56.97z M98.69,58.33c-0.38-0.45-0.87-0.67-1.46-0.67c-0.89,0-1.49,0.42-1.82,1.25
		c-0.17,0.45-0.26,1.03-0.26,1.75c0,0.85,0.17,1.49,0.51,1.94c0.34,0.44,0.8,0.66,1.38,0.66c0.9,0,1.54-0.41,1.91-1.23
		c0.21-0.46,0.31-1.01,0.31-1.62C99.26,59.47,99.07,58.78,98.69,58.33z"/>
	<path d="M102.35,53.87h1.29v1.43h-1.29V53.87z M102.35,56.7h1.29v7.5h-1.29V56.7z"/>
	<path d="M110.53,57.07c0.53,0.41,0.85,1.12,0.96,2.13h-1.23c-0.07-0.46-0.25-0.85-0.51-1.16s-0.7-0.46-1.29-0.46
		c-0.81,0-1.38,0.39-1.73,1.18c-0.23,0.51-0.34,1.14-0.34,1.89c0,0.75,0.16,1.39,0.48,1.9c0.32,0.52,0.82,0.77,1.5,0.77
		c0.52,0,0.94-0.16,1.25-0.48s0.52-0.76,0.64-1.31h1.23c-0.14,1-0.49,1.73-1.05,2.19c-0.56,0.46-1.28,0.69-2.16,0.69
		c-0.98,0-1.77-0.36-2.36-1.08c-0.59-0.72-0.88-1.62-0.88-2.7c0-1.32,0.32-2.35,0.96-3.09c0.64-0.74,1.46-1.1,2.45-1.1
		C109.31,56.45,110,56.66,110.53,57.07z"/>
	<path d="M116.99,53.87h4.13c1.4,0,2.49,0.5,3.26,1.51c0.69,0.91,1.03,2.07,1.03,3.49c0,1.1-0.2,2.09-0.61,2.97
		c-0.72,1.57-1.95,2.35-3.7,2.35h-4.11V53.87z M120.84,63c0.46,0,0.84-0.05,1.14-0.15c0.53-0.18,0.97-0.53,1.31-1.05
		c0.27-0.42,0.46-0.95,0.58-1.6c0.07-0.39,0.1-0.75,0.1-1.08c0-1.28-0.25-2.27-0.75-2.98c-0.5-0.71-1.3-1.06-2.4-1.06h-2.43V63
		H120.84z"/>
	<path d="M127.15,53.87h1.29v1.43h-1.29V53.87z M127.15,56.7h1.29v7.5h-1.29V56.7z"/>
	<path d="M130.39,56.67h1.2v1.3c0.1-0.25,0.34-0.56,0.72-0.92s0.83-0.54,1.33-0.54c0.02,0,0.06,0,0.12,0.01
		c0.06,0,0.15,0.01,0.29,0.03v1.34c-0.07-0.01-0.14-0.02-0.21-0.03c-0.06,0-0.13-0.01-0.21-0.01c-0.64,0-1.13,0.21-1.47,0.62
		s-0.51,0.88-0.51,1.42v4.33h-1.27V56.67z"/>
	<path d="M139.8,56.88c0.5,0.25,0.88,0.58,1.14,0.97c0.25,0.38,0.42,0.82,0.5,1.33c0.07,0.35,0.11,0.9,0.11,1.66h-5.48
		c0.02,0.77,0.2,1.38,0.54,1.84s0.85,0.69,1.56,0.69c0.66,0,1.18-0.22,1.57-0.66c0.22-0.25,0.37-0.55,0.46-0.88h1.24
		c-0.03,0.28-0.14,0.58-0.33,0.92c-0.19,0.34-0.39,0.62-0.62,0.83c-0.38,0.38-0.85,0.63-1.42,0.76c-0.3,0.07-0.64,0.11-1.03,0.11
		c-0.93,0-1.72-0.34-2.37-1.02c-0.65-0.68-0.97-1.64-0.97-2.87c0-1.21,0.33-2.19,0.98-2.95c0.65-0.75,1.5-1.13,2.56-1.13
		C138.79,56.5,139.3,56.63,139.8,56.88z M140.25,59.83c-0.05-0.55-0.17-0.99-0.36-1.31c-0.34-0.61-0.92-0.91-1.72-0.91
		c-0.58,0-1.06,0.21-1.45,0.63s-0.6,0.95-0.62,1.6H140.25z"/>
	<path d="M148.13,57.07c0.53,0.41,0.85,1.12,0.96,2.13h-1.23c-0.07-0.46-0.25-0.85-0.51-1.16s-0.7-0.46-1.29-0.46
		c-0.81,0-1.38,0.39-1.73,1.18c-0.23,0.51-0.34,1.14-0.34,1.89c0,0.75,0.16,1.39,0.48,1.9c0.32,0.52,0.82,0.77,1.5,0.77
		c0.52,0,0.94-0.16,1.25-0.48s0.52-0.76,0.64-1.31h1.23c-0.14,1-0.49,1.73-1.05,2.19c-0.56,0.46-1.28,0.69-2.16,0.69
		c-0.98,0-1.77-0.36-2.36-1.08c-0.59-0.72-0.88-1.62-0.88-2.7c0-1.32,0.32-2.35,0.96-3.09c0.64-0.74,1.46-1.1,2.45-1.1
		C146.91,56.45,147.6,56.66,148.13,57.07z"/>
	<path d="M150.61,54.57h1.28v2.1h1.2v1.03h-1.2v4.92c0,0.26,0.09,0.44,0.27,0.53c0.1,0.05,0.26,0.08,0.49,0.08c0.06,0,0.13,0,0.2,0
		s0.15-0.01,0.25-0.02v1.01c-0.15,0.04-0.3,0.07-0.45,0.09c-0.16,0.02-0.33,0.03-0.51,0.03c-0.59,0-0.99-0.15-1.2-0.45
		s-0.32-0.69-0.32-1.18V57.7h-1.02v-1.03h1.02V54.57z"/>
	<path d="M154.36,53.87h1.29v1.43h-1.29V53.87z M154.36,56.7h1.29v7.5h-1.29V56.7z"/>
	<path d="M163.01,57.42c0.67,0.65,1,1.6,1,2.85c0,1.21-0.29,2.22-0.88,3.01s-1.5,1.19-2.73,1.19c-1.03,0-1.85-0.35-2.45-1.05
		c-0.6-0.7-0.91-1.64-0.91-2.82c0-1.26,0.32-2.27,0.96-3.02c0.64-0.75,1.49-1.12,2.57-1.12C161.53,56.45,162.35,56.77,163.01,57.42z
		 M162.23,62.43c0.31-0.63,0.46-1.34,0.46-2.12c0-0.7-0.11-1.27-0.33-1.71c-0.35-0.69-0.96-1.04-1.82-1.04
		c-0.77,0-1.32,0.29-1.67,0.88c-0.35,0.59-0.52,1.3-0.52,2.14c0,0.8,0.17,1.47,0.52,2c0.35,0.53,0.9,0.8,1.65,0.8
		C161.35,63.38,161.92,63.06,162.23,62.43z"/>
	<path d="M165.57,56.67h1.2v1.07c0.36-0.44,0.73-0.76,1.13-0.95c0.4-0.19,0.84-0.29,1.33-0.29c1.07,0,1.79,0.37,2.17,1.12
		c0.21,0.41,0.31,0.99,0.31,1.75v4.83h-1.29v-4.75c0-0.46-0.07-0.83-0.2-1.11c-0.23-0.47-0.63-0.7-1.22-0.7
		c-0.3,0-0.55,0.03-0.74,0.09c-0.35,0.1-0.65,0.31-0.91,0.62c-0.21,0.25-0.35,0.51-0.41,0.77c-0.06,0.26-0.09,0.64-0.09,1.14v3.94
		h-1.27V56.67z"/>
</g>
<g>
	<path d="M276.96,141.15c-0.74,1.43-1.21,2.48-1.43,3.16c-0.33,1.03-0.5,2.21-0.5,3.56c0,1.36,0.19,2.6,0.57,3.73
		c0.23,0.69,0.7,1.69,1.39,3h-0.85c-0.68-1.07-1.11-1.75-1.27-2.05s-0.34-0.7-0.53-1.2c-0.26-0.69-0.45-1.43-0.55-2.22
		c-0.05-0.41-0.08-0.8-0.08-1.17c0-1.39,0.22-2.62,0.65-3.71c0.28-0.69,0.85-1.72,1.73-3.09H276.96z"/>
	<path d="M282.56,144.35c0.22,0.14,0.48,0.39,0.76,0.74v-3.8h1.22v10.36h-1.14v-1.05c-0.29,0.46-0.64,0.8-1.04,1.01
		c-0.4,0.21-0.86,0.31-1.38,0.31c-0.84,0-1.56-0.35-2.17-1.06c-0.61-0.71-0.92-1.64-0.92-2.82c0-1.1,0.28-2.05,0.84-2.85
		c0.56-0.8,1.36-1.21,2.39-1.21C281.69,143.99,282.17,144.11,282.56,144.35z M279.73,150c0.34,0.54,0.89,0.82,1.64,0.82
		c0.58,0,1.06-0.25,1.44-0.76c0.38-0.5,0.56-1.23,0.56-2.17c0-0.95-0.19-1.66-0.58-2.11c-0.39-0.46-0.87-0.69-1.43-0.69
		c-0.63,0-1.15,0.24-1.54,0.73c-0.39,0.49-0.59,1.21-0.59,2.15C279.22,148.78,279.39,149.45,279.73,150z"/>
	<path d="M286.7,153.13c0.32-0.06,0.55-0.29,0.68-0.69c0.07-0.21,0.11-0.42,0.11-0.61c0-0.03,0-0.06,0-0.09
		c0-0.03-0.01-0.06-0.02-0.09h-0.77v-1.53h1.5v1.42c0,0.56-0.11,1.05-0.34,1.47c-0.22,0.42-0.61,0.68-1.17,0.78V153.13z"/>
	<path d="M290.33,144.16h1.24v1c0.25-0.34,0.53-0.61,0.83-0.79c0.43-0.28,0.93-0.42,1.51-0.42c0.86,0,1.58,0.33,2.18,0.98
		s0.9,1.59,0.9,2.8c0,1.64-0.43,2.81-1.29,3.52c-0.55,0.45-1.18,0.67-1.91,0.67c-0.57,0-1.05-0.12-1.43-0.37
		c-0.23-0.14-0.48-0.38-0.76-0.72v3.85h-1.27V144.16z M295.09,150.06c0.39-0.49,0.59-1.23,0.59-2.22c0-0.6-0.09-1.12-0.26-1.55
		c-0.33-0.83-0.93-1.24-1.81-1.24c-0.88,0-1.48,0.44-1.81,1.31c-0.17,0.47-0.26,1.06-0.26,1.79c0,0.58,0.09,1.08,0.26,1.48
		c0.33,0.78,0.93,1.17,1.81,1.17C294.2,150.8,294.7,150.55,295.09,150.06z"/>
	<path d="M298.01,154.59c0.75-1.45,1.23-2.51,1.44-3.18c0.33-1.01,0.49-2.19,0.49-3.54s-0.19-2.59-0.57-3.72
		c-0.23-0.69-0.7-1.69-1.38-3h0.85c0.72,1.15,1.16,1.86,1.31,2.13s0.32,0.64,0.5,1.11c0.23,0.59,0.39,1.16,0.48,1.74
		c0.1,0.57,0.14,1.12,0.14,1.65c0,1.39-0.22,2.63-0.66,3.71c-0.28,0.7-0.85,1.73-1.72,3.09H298.01z"/>
</g>
<g>
	<path d="M276.96,157.5c-0.74,1.43-1.21,2.48-1.43,3.16c-0.33,1.03-0.5,2.21-0.5,3.56c0,1.36,0.19,2.6,0.57,3.73
		c0.23,0.69,0.7,1.69,1.39,3h-0.85c-0.68-1.07-1.11-1.75-1.27-2.05s-0.34-0.7-0.53-1.2c-0.26-0.69-0.45-1.43-0.55-2.22
		c-0.05-0.41-0.08-0.8-0.08-1.17c0-1.39,0.22-2.62,0.65-3.71c0.28-0.69,0.85-1.72,1.73-3.09H276.96z"/>
	<path d="M278.68,158.37h1.28v2.1h1.2v1.03h-1.2v4.92c0,0.26,0.09,0.44,0.27,0.53c0.1,0.05,0.26,0.08,0.49,0.08c0.06,0,0.13,0,0.2,0
		s0.15-0.01,0.25-0.02V168c-0.15,0.04-0.3,0.07-0.45,0.09s-0.33,0.03-0.51,0.03c-0.59,0-0.99-0.15-1.2-0.45s-0.32-0.69-0.32-1.18
		v-4.99h-1.02v-1.03h1.02V158.37z"/>
	<path d="M282.69,169.48c0.32-0.06,0.55-0.29,0.68-0.69c0.07-0.21,0.11-0.42,0.11-0.61c0-0.03,0-0.06,0-0.09
		c0-0.03-0.01-0.06-0.02-0.09h-0.77v-1.53h1.5v1.42c0,0.56-0.11,1.05-0.34,1.47c-0.22,0.42-0.61,0.68-1.17,0.78V169.48z"/>
	<path d="M286.32,160.51h1.24v1c0.25-0.34,0.53-0.61,0.83-0.79c0.43-0.28,0.93-0.42,1.51-0.42c0.86,0,1.58,0.33,2.18,0.98
		s0.9,1.59,0.9,2.8c0,1.64-0.43,2.81-1.29,3.52c-0.55,0.45-1.18,0.67-1.91,0.67c-0.57,0-1.05-0.12-1.43-0.37
		c-0.23-0.14-0.48-0.38-0.76-0.72V171h-1.27V160.51z M291.08,166.41c0.39-0.49,0.59-1.23,0.59-2.22c0-0.6-0.09-1.12-0.26-1.55
		c-0.33-0.83-0.93-1.24-1.81-1.24c-0.88,0-1.48,0.44-1.81,1.31c-0.17,0.47-0.26,1.06-0.26,1.79c0,0.58,0.09,1.08,0.26,1.48
		c0.33,0.78,0.93,1.17,1.81,1.17C290.2,167.15,290.69,166.9,291.08,166.41z"/>
	<path d="M294.43,160.47h1.2v1.07c0.36-0.44,0.73-0.76,1.13-0.95c0.4-0.19,0.84-0.29,1.33-0.29c1.07,0,1.79,0.37,2.17,1.12
		c0.21,0.41,0.31,0.99,0.31,1.75V168h-1.29v-4.75c0-0.46-0.07-0.83-0.2-1.11c-0.23-0.47-0.63-0.7-1.22-0.7
		c-0.3,0-0.55,0.03-0.74,0.09c-0.35,0.1-0.65,0.31-0.91,0.62c-0.21,0.25-0.35,0.51-0.41,0.77c-0.06,0.26-0.1,0.64-0.1,1.14V168
		h-1.27V160.47z"/>
	<path d="M302.01,170.94c0.75-1.45,1.23-2.51,1.44-3.18c0.33-1.01,0.49-2.19,0.49-3.54s-0.19-2.59-0.57-3.72
		c-0.23-0.69-0.7-1.69-1.38-3h0.85c0.72,1.15,1.16,1.86,1.31,2.13s0.32,0.64,0.5,1.11c0.23,0.59,0.39,1.16,0.48,1.74
		c0.1,0.57,0.14,1.12,0.14,1.65c0,1.39-0.22,2.63-0.66,3.71c-0.28,0.7-0.85,1.73-1.72,3.09H302.01z"/>
</g>
<g>
	<path d="M267.21,190.8c-0.74,1.43-1.21,2.48-1.43,3.16c-0.33,1.03-0.5,2.21-0.5,3.56c0,1.36,0.19,2.6,0.57,3.73
		c0.23,0.69,0.7,1.69,1.39,3h-0.85c-0.68-1.07-1.11-1.75-1.27-2.05s-0.34-0.7-0.53-1.2c-0.26-0.69-0.45-1.43-0.55-2.22
		c-0.05-0.41-0.08-0.8-0.08-1.17c0-1.39,0.22-2.62,0.65-3.71c0.28-0.69,0.85-1.72,1.73-3.09H267.21z"/>
	<path d="M268.88,190.97h1.41v4.27h5.31v-4.27h1.41v10.33h-1.41v-4.83h-5.31v4.83h-1.41V190.97z"/>
	<path d="M283.72,193.98c0.5,0.25,0.88,0.58,1.14,0.97c0.25,0.38,0.42,0.82,0.5,1.33c0.07,0.35,0.11,0.9,0.11,1.66H280
		c0.02,0.77,0.2,1.38,0.54,1.84s0.85,0.69,1.56,0.69c0.66,0,1.18-0.22,1.57-0.66c0.22-0.25,0.37-0.55,0.46-0.88h1.25
		c-0.03,0.28-0.14,0.58-0.33,0.92c-0.19,0.34-0.39,0.62-0.62,0.83c-0.38,0.38-0.85,0.63-1.42,0.76c-0.3,0.07-0.64,0.11-1.03,0.11
		c-0.93,0-1.72-0.34-2.37-1.02s-0.97-1.64-0.97-2.87c0-1.21,0.33-2.19,0.98-2.95c0.65-0.75,1.5-1.13,2.56-1.13
		C282.71,193.6,283.23,193.73,283.72,193.98z M284.18,196.93c-0.05-0.55-0.17-0.99-0.36-1.31c-0.34-0.61-0.92-0.91-1.72-0.91
		c-0.58,0-1.06,0.21-1.45,0.63s-0.6,0.95-0.62,1.6H284.18z"/>
	<path d="M287.3,196.99c-0.54-0.65-0.8-1.45-0.8-2.39h1.32c0.06,0.65,0.18,1.12,0.37,1.42c0.33,0.53,0.92,0.79,1.78,0.79
		c0.67,0,1.2-0.18,1.6-0.53c0.4-0.36,0.6-0.82,0.6-1.38c0-0.69-0.21-1.18-0.64-1.46c-0.42-0.28-1.01-0.41-1.77-0.41
		c-0.08,0-0.17,0-0.26,0s-0.17,0.01-0.26,0.01v-1.12c0.13,0.01,0.24,0.02,0.33,0.03c0.09,0,0.19,0.01,0.29,0.01
		c0.47,0,0.86-0.07,1.17-0.23c0.53-0.26,0.8-0.73,0.8-1.41c0-0.5-0.18-0.89-0.54-1.16c-0.36-0.27-0.77-0.41-1.24-0.41
		c-0.84,0-1.43,0.28-1.75,0.84c-0.18,0.31-0.28,0.75-0.3,1.32h-1.25c0-0.75,0.15-1.39,0.45-1.91c0.52-0.94,1.42-1.41,2.72-1.41
		c1.03,0,1.82,0.23,2.38,0.69s0.84,1.12,0.84,1.99c0,0.62-0.17,1.12-0.5,1.5c-0.21,0.24-0.47,0.43-0.8,0.56
		c0.53,0.15,0.94,0.43,1.24,0.84c0.3,0.41,0.45,0.92,0.45,1.52c0,0.96-0.32,1.74-0.95,2.35s-1.53,0.91-2.69,0.91
		C288.7,197.97,287.84,197.65,287.3,196.99z"/>
	<path d="M295.36,202.78c0.32-0.06,0.55-0.29,0.68-0.69c0.07-0.21,0.11-0.42,0.11-0.61c0-0.03,0-0.06,0-0.09
		c0-0.03-0.01-0.06-0.02-0.09h-0.77v-1.53h1.5v1.42c0,0.56-0.11,1.05-0.34,1.47c-0.22,0.42-0.61,0.68-1.17,0.78V202.78z"/>
	<path d="M299.15,199.04c0.31-0.64,0.92-1.23,1.82-1.75l1.35-0.78c0.61-0.35,1.03-0.65,1.27-0.9c0.38-0.39,0.58-0.84,0.58-1.34
		c0-0.59-0.18-1.05-0.53-1.4s-0.82-0.52-1.41-0.52c-0.87,0-1.47,0.33-1.8,0.99c-0.18,0.35-0.28,0.84-0.3,1.47h-1.29
		c0.01-0.88,0.18-1.59,0.49-2.14c0.55-0.97,1.52-1.46,2.9-1.46c1.15,0,2,0.31,2.53,0.94c0.53,0.62,0.8,1.32,0.8,2.08
		c0,0.81-0.28,1.5-0.85,2.07c-0.33,0.33-0.92,0.74-1.77,1.21l-0.96,0.53c-0.46,0.25-0.82,0.49-1.08,0.72
		c-0.47,0.41-0.76,0.86-0.89,1.36h5.5v1.2h-6.91C298.66,200.43,298.84,199.68,299.15,199.04z"/>
	<path d="M306.99,193.81h1.24v1c0.25-0.34,0.53-0.61,0.83-0.79c0.43-0.28,0.93-0.42,1.51-0.42c0.86,0,1.58,0.33,2.18,0.98
		s0.9,1.59,0.9,2.8c0,1.64-0.43,2.81-1.29,3.52c-0.55,0.45-1.18,0.67-1.91,0.67c-0.57,0-1.05-0.12-1.43-0.37
		c-0.23-0.14-0.48-0.38-0.76-0.72v3.85h-1.27V193.81z M311.76,199.71c0.39-0.49,0.59-1.23,0.59-2.22c0-0.6-0.09-1.12-0.26-1.55
		c-0.33-0.83-0.93-1.24-1.81-1.24c-0.88,0-1.48,0.44-1.81,1.31c-0.17,0.47-0.26,1.06-0.26,1.79c0,0.58,0.09,1.08,0.26,1.48
		c0.33,0.78,0.93,1.17,1.81,1.17C310.87,200.45,311.36,200.2,311.76,199.71z"/>
	<path d="M314.68,204.24c0.75-1.45,1.23-2.51,1.44-3.18c0.33-1.01,0.49-2.19,0.49-3.54s-0.19-2.59-0.57-3.72
		c-0.23-0.69-0.7-1.69-1.38-3h0.85c0.72,1.15,1.16,1.86,1.31,2.13s0.32,0.64,0.5,1.11c0.23,0.59,0.39,1.16,0.48,1.74
		c0.1,0.57,0.14,1.12,0.14,1.65c0,1.39-0.22,2.63-0.66,3.71c-0.28,0.7-0.85,1.73-1.72,3.09H314.68z"/>
</g>
<g>
	<path d="M235.03,104.2c0.49,1.53,0.9,2.61,1.22,3.25c0.49,0.96,1.21,1.92,2.16,2.87c0.96,0.96,1.97,1.71,3.04,2.23
		c0.66,0.33,1.69,0.7,3.1,1.14l-0.6,0.6c-1.24-0.27-2.02-0.45-2.35-0.55c-0.33-0.09-0.73-0.25-1.23-0.47
		c-0.68-0.3-1.33-0.7-1.96-1.18c-0.32-0.25-0.62-0.51-0.88-0.77c-0.98-0.98-1.7-2.01-2.16-3.08c-0.29-0.68-0.61-1.82-0.96-3.41
		L235.03,104.2z"/>
	<path d="M236.32,103.14l1-1l3.02,3.02l3.75-3.75l-3.02-3.02l1-1l7.3,7.3l-1,1l-3.42-3.42l-3.75,3.75l3.42,3.42l-1,1L236.32,103.14z
		"/>
	<path d="M248.95,94.77c0.53-0.18,1.03-0.21,1.49-0.12c0.45,0.09,0.88,0.29,1.3,0.58c0.3,0.19,0.72,0.56,1.25,1.09l-3.87,3.87
		c0.56,0.53,1.12,0.83,1.68,0.92c0.56,0.09,1.09-0.11,1.59-0.61c0.46-0.46,0.68-0.99,0.65-1.58c-0.02-0.33-0.12-0.65-0.3-0.95
		l0.88-0.88c0.17,0.22,0.31,0.51,0.42,0.89s0.16,0.71,0.15,1.03c0,0.53-0.16,1.05-0.47,1.54c-0.16,0.27-0.38,0.54-0.65,0.81
		c-0.66,0.66-1.46,0.98-2.4,0.95s-1.84-0.47-2.71-1.34c-0.85-0.85-1.32-1.78-1.39-2.78c-0.07-0.99,0.26-1.86,1.01-2.61
		C247.97,95.22,248.42,94.95,248.95,94.77z M251.36,96.54c-0.42-0.35-0.82-0.58-1.18-0.68c-0.67-0.19-1.3,0-1.86,0.57
		c-0.41,0.41-0.6,0.9-0.58,1.47c0.02,0.57,0.25,1.1,0.69,1.57L251.36,96.54z"/>
	<path d="M256.68,92.3l-1.74-1.74l-3.12,3.12l-0.87-0.87l-1.26-7.79l0.76-0.76l4.62,4.62l1.05-1.05l0.78,0.78l-1.05,1.05l1.74,1.74
		L256.68,92.3z M254.14,89.8l-3.23-3.23l0.95,5.52L254.14,89.8z"/>
	<path d="M263.4,92.77c0.19-0.27,0.19-0.59,0-0.97c-0.1-0.2-0.22-0.37-0.36-0.51c-0.02-0.02-0.05-0.04-0.07-0.06
		c-0.02-0.02-0.04-0.03-0.07-0.05l-0.54,0.54l-1.08-1.08l1.06-1.06l1,1c0.39,0.39,0.66,0.82,0.8,1.28s0.05,0.92-0.27,1.38
		L263.4,92.77z"/>
	<path d="M265.74,87.19c-1.18-0.77-2.19-1.32-3.01-1.65c-0.82-0.32-1.34-0.38-1.54-0.18c-0.1,0.1-0.14,0.24-0.1,0.4
		c0.04,0.16,0.14,0.34,0.3,0.54l-0.23,0.23l-0.3-0.3c-0.41-0.41-0.65-0.77-0.74-1.09c-0.08-0.32,0-0.6,0.23-0.83
		c0.44-0.44,1.98,0.19,4.62,1.89l0.51,0.33c-0.45-1.11-1.08-2.18-1.89-3.22c-0.11-0.13-0.18-0.23-0.22-0.29
		c-0.26-0.34-0.42-0.62-0.47-0.84c-0.05-0.22,0-0.4,0.15-0.55c0.14-0.14,0.29-0.21,0.44-0.21c0.15,0,0.3,0.08,0.45,0.22
		c0.27,0.27,0.62,1.04,1.05,2.29c0.43,1.25,0.79,2.24,1.1,2.97c0.43,0.33,0.82,0.63,1.15,0.9s0.6,0.52,0.81,0.73
		c0.34,0.34,0.55,0.62,0.63,0.84c0.08,0.22,0.04,0.4-0.11,0.56c-0.15,0.15-0.32,0.2-0.52,0.15s-0.42-0.19-0.66-0.43
		c-0.24-0.24-0.5-0.57-0.77-0.98C266.33,88.25,266.04,87.76,265.74,87.19z"/>
	<path d="M270.95,87.28c-0.5-1.55-0.91-2.64-1.23-3.27c-0.48-0.94-1.2-1.9-2.16-2.85c-0.96-0.96-1.97-1.7-3.03-2.23
		c-0.66-0.33-1.69-0.7-3.1-1.14l0.6-0.6c1.33,0.3,2.14,0.5,2.44,0.58c0.3,0.08,0.68,0.23,1.14,0.44c0.57,0.26,1.1,0.55,1.57,0.89
		c0.47,0.34,0.9,0.69,1.27,1.07c0.98,0.98,1.7,2.01,2.16,3.09c0.3,0.69,0.62,1.82,0.97,3.4L270.95,87.28z"/>
</g>
<g>
	<path d="M411.06,264c-0.74,1.43-1.21,2.48-1.43,3.16c-0.33,1.03-0.5,2.21-0.5,3.56c0,1.36,0.19,2.6,0.57,3.73
		c0.23,0.69,0.7,1.69,1.39,3h-0.85c-0.68-1.07-1.11-1.75-1.27-2.05s-0.34-0.7-0.53-1.2c-0.26-0.69-0.45-1.43-0.55-2.22
		c-0.05-0.41-0.08-0.8-0.08-1.17c0-1.39,0.22-2.62,0.65-3.71c0.28-0.69,0.85-1.72,1.73-3.09H411.06z"/>
	<path d="M416.66,267.2c0.22,0.14,0.48,0.39,0.76,0.74v-3.8h1.22v10.36h-1.14v-1.05c-0.29,0.46-0.64,0.8-1.04,1.01
		c-0.4,0.21-0.86,0.31-1.38,0.31c-0.84,0-1.56-0.35-2.17-1.06c-0.61-0.71-0.92-1.64-0.92-2.82c0-1.1,0.28-2.05,0.84-2.85
		c0.56-0.8,1.36-1.21,2.39-1.21C415.79,266.84,416.27,266.96,416.66,267.2z M413.84,272.85c0.34,0.54,0.89,0.82,1.64,0.82
		c0.58,0,1.06-0.25,1.44-0.76c0.38-0.5,0.56-1.23,0.56-2.17c0-0.95-0.19-1.66-0.58-2.11c-0.39-0.46-0.87-0.69-1.43-0.69
		c-0.63,0-1.15,0.24-1.54,0.73c-0.39,0.49-0.59,1.21-0.59,2.15C413.32,271.63,413.49,272.3,413.84,272.85z"/>
	<path d="M420.8,275.98c0.32-0.06,0.55-0.29,0.68-0.69c0.07-0.21,0.11-0.42,0.11-0.61c0-0.03,0-0.06,0-0.09
		c0-0.03-0.01-0.06-0.02-0.09h-0.77v-1.53h1.5v1.42c0,0.56-0.11,1.05-0.34,1.47c-0.22,0.42-0.61,0.68-1.17,0.78V275.98z"/>
	<path d="M424.53,266.97h1.2v1.07c0.36-0.44,0.73-0.76,1.13-0.95c0.4-0.19,0.84-0.29,1.33-0.29c1.07,0,1.79,0.37,2.17,1.12
		c0.21,0.41,0.31,0.99,0.31,1.75v4.83h-1.29v-4.75c0-0.46-0.07-0.83-0.2-1.11c-0.23-0.47-0.63-0.7-1.22-0.7
		c-0.3,0-0.55,0.03-0.74,0.09c-0.35,0.1-0.65,0.31-0.91,0.62c-0.21,0.25-0.35,0.51-0.41,0.77c-0.06,0.26-0.1,0.64-0.1,1.14v3.94
		h-1.27V266.97z"/>
	<path d="M432.11,277.44c0.75-1.45,1.23-2.51,1.44-3.18c0.33-1.01,0.49-2.19,0.49-3.54s-0.19-2.59-0.57-3.72
		c-0.23-0.69-0.7-1.69-1.38-3h0.85c0.72,1.15,1.16,1.86,1.31,2.13s0.32,0.64,0.5,1.11c0.23,0.59,0.39,1.16,0.48,1.74
		c0.1,0.57,0.14,1.12,0.14,1.65c0,1.39-0.22,2.63-0.66,3.71c-0.28,0.7-0.85,1.73-1.72,3.09H432.11z"/>
</g>
<g>
	<path d="M411.06,199.8c-0.74,1.43-1.21,2.48-1.43,3.16c-0.33,1.03-0.5,2.21-0.5,3.56c0,1.36,0.19,2.6,0.57,3.73
		c0.23,0.69,0.7,1.69,1.39,3h-0.85c-0.68-1.07-1.11-1.75-1.27-2.05s-0.34-0.7-0.53-1.2c-0.26-0.69-0.45-1.43-0.55-2.22
		c-0.05-0.41-0.08-0.8-0.08-1.17c0-1.39,0.22-2.62,0.65-3.71c0.28-0.69,0.85-1.72,1.73-3.09H411.06z"/>
	<path d="M412.73,199.97h1.41v4.27h5.31v-4.27h1.41v10.33h-1.41v-4.83h-5.31v4.83h-1.41V199.97z"/>
	<path d="M427.57,202.98c0.5,0.25,0.88,0.58,1.14,0.97c0.25,0.38,0.42,0.82,0.5,1.33c0.07,0.35,0.11,0.9,0.11,1.66h-5.48
		c0.02,0.77,0.2,1.38,0.54,1.84s0.85,0.69,1.56,0.69c0.66,0,1.18-0.22,1.57-0.66c0.22-0.25,0.37-0.55,0.46-0.88h1.25
		c-0.03,0.28-0.14,0.58-0.33,0.92c-0.19,0.34-0.39,0.62-0.62,0.83c-0.38,0.38-0.85,0.63-1.42,0.76c-0.3,0.07-0.64,0.11-1.03,0.11
		c-0.93,0-1.72-0.34-2.37-1.02s-0.97-1.64-0.97-2.87c0-1.21,0.33-2.19,0.98-2.95c0.65-0.75,1.5-1.13,2.56-1.13
		C426.56,202.6,427.08,202.73,427.57,202.98z M428.03,205.93c-0.05-0.55-0.17-0.99-0.36-1.31c-0.34-0.61-0.92-0.91-1.72-0.91
		c-0.58,0-1.06,0.21-1.45,0.63s-0.6,0.95-0.62,1.6H428.03z"/>
	<path d="M431.15,205.99c-0.54-0.65-0.8-1.45-0.8-2.39h1.32c0.06,0.65,0.18,1.12,0.37,1.42c0.33,0.53,0.92,0.79,1.78,0.79
		c0.67,0,1.2-0.18,1.6-0.53c0.4-0.36,0.6-0.82,0.6-1.38c0-0.69-0.21-1.18-0.64-1.46c-0.42-0.28-1.01-0.41-1.77-0.41
		c-0.08,0-0.17,0-0.26,0s-0.17,0.01-0.26,0.01v-1.12c0.13,0.01,0.24,0.02,0.33,0.03c0.09,0,0.19,0.01,0.29,0.01
		c0.47,0,0.86-0.07,1.17-0.23c0.53-0.26,0.8-0.73,0.8-1.41c0-0.5-0.18-0.89-0.54-1.16c-0.36-0.27-0.77-0.41-1.24-0.41
		c-0.84,0-1.43,0.28-1.75,0.84c-0.18,0.31-0.28,0.75-0.3,1.32h-1.25c0-0.75,0.15-1.39,0.45-1.91c0.52-0.94,1.42-1.41,2.72-1.41
		c1.03,0,1.82,0.23,2.38,0.69s0.84,1.12,0.84,1.99c0,0.62-0.17,1.12-0.5,1.5c-0.21,0.24-0.47,0.43-0.8,0.56
		c0.53,0.15,0.94,0.43,1.24,0.84c0.3,0.41,0.45,0.92,0.45,1.52c0,0.96-0.32,1.74-0.95,2.35s-1.53,0.91-2.69,0.91
		C432.55,206.97,431.69,206.65,431.15,205.99z"/>
	<path d="M439.21,211.78c0.32-0.06,0.55-0.29,0.68-0.69c0.07-0.21,0.11-0.42,0.11-0.61c0-0.03,0-0.06,0-0.09
		c0-0.03-0.01-0.06-0.02-0.09h-0.77v-1.53h1.5v1.42c0,0.56-0.11,1.05-0.34,1.47c-0.22,0.42-0.61,0.68-1.17,0.78V211.78z"/>
	<path d="M442.84,202.8h1.24v1c0.25-0.34,0.53-0.61,0.83-0.79c0.43-0.28,0.93-0.42,1.51-0.42c0.86,0,1.58,0.33,2.18,0.98
		s0.9,1.59,0.9,2.8c0,1.64-0.43,2.81-1.29,3.52c-0.55,0.45-1.18,0.67-1.91,0.67c-0.57,0-1.05-0.12-1.43-0.37
		c-0.23-0.14-0.48-0.38-0.76-0.72v3.85h-1.27V202.8z M447.6,208.71c0.39-0.49,0.59-1.23,0.59-2.22c0-0.6-0.09-1.12-0.26-1.55
		c-0.33-0.83-0.93-1.24-1.81-1.24c-0.88,0-1.48,0.44-1.81,1.31c-0.17,0.47-0.26,1.06-0.26,1.79c0,0.58,0.09,1.08,0.26,1.48
		c0.33,0.78,0.93,1.17,1.81,1.17C446.71,209.45,447.2,209.2,447.6,208.71z"/>
	<path d="M450.95,202.77h1.2v1.07c0.36-0.44,0.73-0.76,1.13-0.95c0.4-0.19,0.84-0.29,1.33-0.29c1.07,0,1.79,0.37,2.17,1.12
		c0.21,0.41,0.31,0.99,0.31,1.75v4.83h-1.29v-4.75c0-0.46-0.07-0.83-0.2-1.11c-0.23-0.47-0.63-0.7-1.22-0.7
		c-0.3,0-0.55,0.03-0.74,0.09c-0.35,0.1-0.65,0.31-0.91,0.62c-0.21,0.25-0.35,0.51-0.41,0.77c-0.06,0.26-0.1,0.64-0.1,1.14v3.94
		h-1.27V202.77z"/>
	<path d="M458.53,213.24c0.75-1.45,1.23-2.51,1.44-3.18c0.33-1.01,0.49-2.19,0.49-3.54s-0.19-2.59-0.57-3.72
		c-0.23-0.69-0.7-1.69-1.38-3h0.85c0.72,1.15,1.16,1.86,1.31,2.13s0.32,0.64,0.5,1.11c0.23,0.59,0.39,1.16,0.48,1.74
		c0.1,0.57,0.14,1.12,0.14,1.65c0,1.39-0.22,2.63-0.66,3.71c-0.28,0.7-0.85,1.73-1.72,3.09H458.53z"/>
</g>
<g>
	<path d="M411.06,222.6c-0.74,1.43-1.21,2.48-1.43,3.16c-0.33,1.03-0.5,2.21-0.5,3.56c0,1.36,0.19,2.6,0.57,3.73
		c0.23,0.69,0.7,1.69,1.39,3h-0.85c-0.68-1.07-1.11-1.75-1.27-2.05s-0.34-0.7-0.53-1.2c-0.26-0.69-0.45-1.43-0.55-2.22
		c-0.05-0.41-0.08-0.8-0.08-1.17c0-1.39,0.22-2.62,0.65-3.71c0.28-0.69,0.85-1.72,1.73-3.09H411.06z"/>
	<path d="M412.78,223.47h1.28v2.1h1.2v1.03h-1.2v4.92c0,0.26,0.09,0.44,0.27,0.53c0.1,0.05,0.26,0.08,0.49,0.08c0.06,0,0.13,0,0.2,0
		s0.15-0.01,0.25-0.02v1.01c-0.15,0.04-0.3,0.07-0.45,0.09s-0.33,0.03-0.51,0.03c-0.59,0-0.99-0.15-1.2-0.45s-0.32-0.69-0.32-1.18
		v-4.99h-1.02v-1.03h1.02V223.47z"/>
	<path d="M416.79,234.58c0.32-0.06,0.55-0.29,0.68-0.69c0.07-0.21,0.11-0.42,0.11-0.61c0-0.03,0-0.06,0-0.09
		c0-0.03-0.01-0.06-0.02-0.09h-0.77v-1.53h1.5v1.42c0,0.56-0.11,1.05-0.34,1.47c-0.22,0.42-0.61,0.68-1.17,0.78V234.58z"/>
	<path d="M420.59,230.83c0.31-0.64,0.92-1.23,1.82-1.75l1.35-0.78c0.61-0.35,1.03-0.65,1.27-0.9c0.38-0.39,0.58-0.84,0.58-1.34
		c0-0.59-0.18-1.05-0.53-1.4s-0.82-0.52-1.41-0.52c-0.87,0-1.47,0.33-1.8,0.99c-0.18,0.35-0.28,0.84-0.3,1.47h-1.29
		c0.01-0.88,0.18-1.59,0.49-2.14c0.55-0.97,1.52-1.46,2.9-1.46c1.15,0,2,0.31,2.53,0.94c0.53,0.62,0.8,1.32,0.8,2.08
		c0,0.81-0.28,1.5-0.85,2.07c-0.33,0.33-0.92,0.74-1.77,1.21l-0.96,0.53c-0.46,0.25-0.82,0.49-1.08,0.72
		c-0.47,0.41-0.76,0.86-0.89,1.36h5.5v1.2h-6.91C420.09,232.23,420.27,231.48,420.59,230.83z"/>
	<path d="M428.53,225.57h1.2v1.07c0.36-0.44,0.73-0.76,1.13-0.95c0.4-0.19,0.84-0.29,1.33-0.29c1.07,0,1.79,0.37,2.17,1.12
		c0.21,0.41,0.31,0.99,0.31,1.75v4.83h-1.29v-4.75c0-0.46-0.07-0.83-0.2-1.11c-0.23-0.47-0.63-0.7-1.22-0.7
		c-0.3,0-0.55,0.03-0.74,0.09c-0.35,0.1-0.65,0.31-0.91,0.62c-0.21,0.25-0.35,0.51-0.41,0.77c-0.06,0.26-0.1,0.64-0.1,1.14v3.94
		h-1.27V225.57z"/>
	<path d="M436.11,236.04c0.75-1.45,1.23-2.51,1.44-3.18c0.33-1.01,0.49-2.19,0.49-3.54s-0.19-2.59-0.57-3.72
		c-0.23-0.69-0.7-1.69-1.38-3h0.85c0.72,1.15,1.16,1.86,1.31,2.13s0.32,0.64,0.5,1.11c0.23,0.59,0.39,1.16,0.48,1.74
		c0.1,0.57,0.14,1.12,0.14,1.65c0,1.39-0.22,2.63-0.66,3.71c-0.28,0.7-0.85,1.73-1.72,3.09H436.11z"/>
</g>
<g>
	<path d="M386.93,99.92c0.49,1.53,0.9,2.61,1.22,3.25c0.49,0.96,1.21,1.92,2.16,2.87c0.96,0.96,1.97,1.71,3.04,2.23
		c0.66,0.33,1.69,0.7,3.1,1.14l-0.6,0.6c-1.24-0.27-2.02-0.45-2.35-0.55c-0.33-0.09-0.73-0.25-1.23-0.47
		c-0.68-0.3-1.33-0.7-1.96-1.18c-0.33-0.25-0.62-0.51-0.88-0.77c-0.98-0.98-1.7-2.01-2.16-3.08c-0.29-0.68-0.61-1.82-0.96-3.41
		L386.93,99.92z"/>
	<path d="M390.06,100.98l0.85-0.85l0.76,0.76c-0.06-0.56-0.02-1.05,0.13-1.47c0.15-0.42,0.39-0.8,0.74-1.14
		c0.76-0.76,1.53-1,2.32-0.74c0.43,0.14,0.92,0.48,1.46,1.02l3.42,3.42l-0.91,0.91l-3.36-3.36c-0.32-0.32-0.63-0.54-0.93-0.64
		c-0.49-0.17-0.95-0.05-1.36,0.37c-0.21,0.21-0.36,0.41-0.46,0.59c-0.17,0.32-0.24,0.68-0.21,1.08c0.03,0.32,0.11,0.6,0.25,0.83
		c0.14,0.23,0.39,0.52,0.74,0.87l2.79,2.79l-0.89,0.9L390.06,100.98z"/>
	<path d="M402.28,101.5c0.19-0.27,0.19-0.59,0-0.97c-0.1-0.2-0.22-0.37-0.36-0.51c-0.02-0.02-0.04-0.04-0.07-0.06
		c-0.02-0.02-0.04-0.03-0.07-0.05l-0.54,0.54l-1.08-1.08l1.06-1.06l1,1c0.39,0.39,0.66,0.82,0.8,1.28c0.14,0.46,0.05,0.92-0.27,1.38
		L402.28,101.5z"/>
	<path d="M396.72,90.37l1-1l3.02,3.02l3.75-3.75l-3.02-3.02l1-1l7.3,7.3l-1,1l-3.42-3.42l-3.75,3.75l3.42,3.42l-1,1L396.72,90.37z"
		/>
	<path d="M409.34,81.99c0.53-0.17,1.03-0.21,1.49-0.12c0.45,0.09,0.88,0.29,1.3,0.58c0.3,0.19,0.72,0.56,1.25,1.09l-3.87,3.87
		c0.56,0.53,1.12,0.83,1.68,0.92s1.09-0.11,1.59-0.61c0.46-0.46,0.68-0.99,0.65-1.57c-0.03-0.33-0.12-0.65-0.3-0.95l0.88-0.88
		c0.17,0.22,0.31,0.51,0.42,0.88c0.11,0.37,0.16,0.71,0.15,1.03c0,0.53-0.16,1.05-0.47,1.54c-0.16,0.27-0.38,0.54-0.64,0.81
		c-0.66,0.66-1.46,0.98-2.4,0.95c-0.94-0.02-1.84-0.47-2.71-1.34c-0.86-0.85-1.32-1.78-1.39-2.77s0.26-1.86,1.01-2.61
		C408.36,82.44,408.81,82.17,409.34,81.99z M411.75,83.76c-0.42-0.35-0.82-0.58-1.18-0.68c-0.67-0.19-1.3,0-1.86,0.57
		c-0.41,0.41-0.6,0.9-0.58,1.47c0.02,0.57,0.25,1.1,0.69,1.57L411.75,83.76z"/>
	<path d="M417.07,79.53l-1.74-1.74l-3.12,3.12l-0.88-0.88l-1.26-7.79l0.76-0.76l4.62,4.62l1.05-1.05l0.78,0.78l-1.05,1.05l1.74,1.74
		L417.07,79.53z M414.54,77.02l-3.23-3.23l0.95,5.52L414.54,77.02z"/>
	<path d="M424.33,81.52c-0.5-1.55-0.91-2.64-1.23-3.27c-0.48-0.94-1.2-1.9-2.16-2.85c-0.96-0.96-1.97-1.7-3.03-2.23
		c-0.66-0.33-1.69-0.7-3.1-1.14l0.6-0.6c1.33,0.3,2.14,0.5,2.44,0.58c0.3,0.08,0.68,0.23,1.14,0.44c0.57,0.25,1.1,0.55,1.57,0.89
		c0.47,0.34,0.9,0.69,1.27,1.07c0.98,0.98,1.7,2.01,2.16,3.09c0.3,0.69,0.62,1.82,0.96,3.4L424.33,81.52z"/>
</g>
<g>
	<path d="M412.49,111.95c0.49,1.53,0.9,2.61,1.22,3.25c0.49,0.96,1.21,1.92,2.16,2.87c0.96,0.96,1.97,1.71,3.04,2.23
		c0.66,0.33,1.69,0.7,3.1,1.14l-0.6,0.6c-1.24-0.27-2.02-0.45-2.35-0.55c-0.32-0.09-0.73-0.25-1.23-0.47
		c-0.68-0.3-1.33-0.7-1.96-1.18c-0.33-0.25-0.62-0.51-0.88-0.77c-0.98-0.98-1.7-2.01-2.16-3.08c-0.29-0.68-0.61-1.82-0.96-3.41
		L412.49,111.95z"/>
	<path d="M421.69,116.45c-1.18-0.77-2.19-1.32-3.01-1.65c-0.82-0.32-1.33-0.38-1.54-0.18c-0.1,0.1-0.14,0.24-0.1,0.4
		c0.04,0.16,0.14,0.34,0.3,0.54l-0.23,0.23l-0.3-0.3c-0.41-0.41-0.65-0.77-0.74-1.09c-0.08-0.32,0-0.6,0.23-0.83
		c0.44-0.44,1.98,0.19,4.62,1.89l0.51,0.33c-0.45-1.11-1.08-2.18-1.89-3.22c-0.11-0.13-0.18-0.23-0.22-0.29
		c-0.26-0.34-0.42-0.62-0.46-0.84c-0.05-0.22,0-0.4,0.15-0.55c0.14-0.14,0.29-0.21,0.44-0.21c0.15,0,0.3,0.08,0.45,0.22
		c0.27,0.27,0.62,1.04,1.05,2.29c0.43,1.25,0.79,2.24,1.1,2.97c0.43,0.33,0.82,0.63,1.15,0.9c0.33,0.28,0.6,0.52,0.81,0.73
		c0.34,0.34,0.55,0.62,0.63,0.84c0.08,0.22,0.04,0.4-0.11,0.56c-0.15,0.15-0.32,0.2-0.52,0.15c-0.2-0.05-0.42-0.19-0.66-0.43
		c-0.24-0.24-0.5-0.57-0.77-0.98C422.28,117.51,421.99,117.02,421.69,116.45z"/>
	<path d="M426.36,115.01c0.19-0.27,0.19-0.59,0-0.97c-0.1-0.2-0.22-0.37-0.36-0.51c-0.02-0.02-0.04-0.04-0.07-0.06
		c-0.02-0.02-0.04-0.03-0.08-0.05l-0.54,0.54l-1.08-1.08l1.06-1.06l1,1c0.39,0.39,0.66,0.82,0.8,1.28c0.14,0.46,0.05,0.92-0.27,1.38
		L426.36,115.01z"/>
	<path d="M420.8,103.87l1-1l3.02,3.02l3.75-3.75l-3.02-3.02l1-1l7.3,7.3l-1,1l-3.42-3.42l-3.75,3.75l3.42,3.42l-1,1L420.8,103.87z"
		/>
	<path d="M433.42,95.5c0.53-0.18,1.03-0.21,1.49-0.12c0.45,0.09,0.88,0.29,1.3,0.58c0.3,0.19,0.72,0.56,1.25,1.09l-3.87,3.87
		c0.56,0.53,1.12,0.83,1.68,0.92c0.56,0.09,1.09-0.11,1.59-0.61c0.46-0.46,0.68-0.99,0.65-1.57c-0.03-0.33-0.12-0.65-0.3-0.95
		l0.88-0.88c0.17,0.22,0.31,0.51,0.42,0.88c0.11,0.37,0.16,0.71,0.15,1.03c0,0.54-0.16,1.05-0.46,1.54
		c-0.16,0.27-0.38,0.54-0.65,0.81c-0.66,0.66-1.46,0.98-2.4,0.95c-0.94-0.02-1.84-0.47-2.71-1.34c-0.86-0.85-1.32-1.78-1.39-2.78
		c-0.07-0.99,0.26-1.86,1.01-2.61C432.44,95.95,432.89,95.68,433.42,95.5z M435.83,97.27c-0.42-0.35-0.82-0.58-1.18-0.68
		c-0.67-0.19-1.29,0-1.86,0.57c-0.41,0.41-0.6,0.9-0.58,1.47c0.02,0.57,0.25,1.1,0.69,1.57L435.83,97.27z"/>
	<path d="M441.15,93.04l-1.74-1.74l-3.12,3.12l-0.88-0.87l-1.26-7.79l0.76-0.76l4.62,4.62l1.05-1.05l0.78,0.78l-1.05,1.05l1.74,1.74
		L441.15,93.04z M438.62,90.53l-3.23-3.23l0.95,5.52L438.62,90.53z"/>
	<path d="M448.41,95.03c-0.5-1.55-0.91-2.64-1.23-3.27c-0.48-0.94-1.2-1.9-2.16-2.85c-0.96-0.96-1.97-1.7-3.03-2.23
		c-0.66-0.32-1.69-0.7-3.1-1.14l0.6-0.6c1.33,0.3,2.14,0.5,2.44,0.58c0.3,0.08,0.68,0.23,1.14,0.44c0.57,0.26,1.1,0.55,1.57,0.89
		c0.47,0.34,0.9,0.69,1.27,1.07c0.98,0.98,1.7,2.01,2.16,3.09c0.3,0.69,0.62,1.82,0.96,3.4L448.41,95.03z"/>
</g>
<g>
	<path d="M430.63,132.98c0.49,1.53,0.9,2.61,1.22,3.25c0.49,0.96,1.21,1.92,2.16,2.87c0.96,0.96,1.97,1.71,3.04,2.23
		c0.66,0.33,1.69,0.7,3.1,1.14l-0.6,0.6c-1.24-0.27-2.02-0.45-2.35-0.55c-0.32-0.09-0.73-0.25-1.23-0.47
		c-0.68-0.3-1.33-0.7-1.96-1.18c-0.32-0.25-0.62-0.51-0.88-0.77c-0.98-0.98-1.7-2.01-2.16-3.08c-0.29-0.68-0.61-1.82-0.96-3.41
		L430.63,132.98z"/>
	<path d="M433.71,134.14l0.88-0.88l0.71,0.71c-0.06-0.42-0.05-0.8,0.03-1.15c0.1-0.5,0.36-0.96,0.77-1.37
		c0.6-0.6,1.35-0.89,2.23-0.85c0.88,0.04,1.76,0.49,2.61,1.35c1.16,1.16,1.68,2.29,1.57,3.4c-0.07,0.7-0.36,1.31-0.88,1.82
		c-0.4,0.4-0.83,0.65-1.28,0.75c-0.26,0.06-0.61,0.07-1.05,0.02l2.72,2.72l-0.89,0.9L433.71,134.14z M441.25,134.95
		c-0.07-0.63-0.46-1.29-1.15-1.98c-0.42-0.42-0.85-0.73-1.28-0.91c-0.82-0.35-1.54-0.22-2.16,0.4c-0.62,0.62-0.74,1.36-0.35,2.21
		c0.21,0.45,0.57,0.94,1.08,1.45c0.41,0.41,0.82,0.7,1.23,0.87c0.78,0.32,1.48,0.17,2.1-0.45
		C441.15,136.1,441.32,135.57,441.25,134.95z"/>
	<path d="M445.98,134.56c0.19-0.27,0.19-0.59,0-0.97c-0.1-0.2-0.22-0.37-0.36-0.51c-0.02-0.02-0.04-0.04-0.07-0.06
		c-0.02-0.02-0.04-0.03-0.07-0.05l-0.54,0.54l-1.08-1.08l1.06-1.06l1,1c0.39,0.39,0.66,0.82,0.8,1.28c0.14,0.46,0.05,0.92-0.27,1.38
		L445.98,134.56z"/>
	<path d="M440.42,123.42l1-1l3.02,3.02l3.75-3.75l-3.02-3.02l1-1l7.3,7.3l-1,1l-3.42-3.42l-3.75,3.75l3.42,3.42l-1,1L440.42,123.42z
		"/>
	<path d="M453.04,115.05c0.53-0.17,1.03-0.21,1.49-0.12c0.45,0.09,0.88,0.29,1.3,0.58c0.3,0.19,0.72,0.56,1.25,1.09l-3.87,3.87
		c0.56,0.53,1.12,0.83,1.68,0.92c0.56,0.09,1.09-0.11,1.59-0.61c0.46-0.46,0.68-0.99,0.65-1.57c-0.03-0.33-0.12-0.65-0.3-0.95
		l0.88-0.88c0.17,0.22,0.31,0.51,0.42,0.88c0.11,0.37,0.16,0.71,0.15,1.03c0,0.54-0.16,1.05-0.46,1.54
		c-0.16,0.27-0.38,0.54-0.64,0.81c-0.66,0.66-1.46,0.97-2.4,0.95c-0.94-0.02-1.84-0.47-2.71-1.34c-0.85-0.85-1.32-1.78-1.39-2.77
		c-0.07-0.99,0.26-1.86,1.01-2.61C452.06,115.5,452.51,115.23,453.04,115.05z M455.45,116.82c-0.42-0.35-0.82-0.58-1.18-0.68
		c-0.67-0.19-1.29,0-1.86,0.57c-0.41,0.41-0.6,0.9-0.58,1.47c0.02,0.57,0.25,1.1,0.69,1.57L455.45,116.82z"/>
	<path d="M460.77,112.59l-1.74-1.74l-3.12,3.12l-0.88-0.88l-1.26-7.79l0.76-0.76l4.62,4.62l1.05-1.05l0.78,0.78l-1.05,1.05
		l1.74,1.74L460.77,112.59z M458.24,110.08l-3.23-3.23l0.95,5.52L458.24,110.08z"/>
	<path d="M468.03,114.58c-0.5-1.56-0.91-2.64-1.23-3.27c-0.48-0.94-1.2-1.9-2.16-2.85s-1.97-1.7-3.03-2.23
		c-0.66-0.33-1.69-0.7-3.1-1.14l0.6-0.6c1.33,0.3,2.14,0.5,2.44,0.58c0.3,0.08,0.68,0.23,1.14,0.44c0.57,0.26,1.1,0.55,1.57,0.89
		c0.47,0.34,0.9,0.69,1.27,1.07c0.98,0.98,1.7,2.01,2.16,3.09c0.3,0.69,0.62,1.82,0.96,3.4L468.03,114.58z"/>
</g>
<g>
	<path d="M439.03,316.55c0.49,1.53,0.9,2.61,1.22,3.25c0.49,0.96,1.21,1.92,2.16,2.87c0.96,0.96,1.97,1.71,3.04,2.23
		c0.66,0.33,1.69,0.71,3.1,1.14l-0.6,0.6c-1.24-0.27-2.02-0.45-2.35-0.55c-0.32-0.09-0.73-0.25-1.23-0.47
		c-0.68-0.3-1.33-0.7-1.96-1.18c-0.32-0.25-0.62-0.51-0.88-0.77c-0.98-0.98-1.7-2.01-2.16-3.08c-0.29-0.68-0.61-1.82-0.96-3.41
		L439.03,316.55z"/>
	<path d="M440.33,315.49l1-1l3.02,3.02l3.75-3.75l-3.02-3.02l1-1l7.3,7.3l-1,1l-3.42-3.42l-3.75,3.75l3.42,3.42l-1,1L440.33,315.49z
		"/>
	<path d="M452.95,307.12c0.53-0.18,1.03-0.21,1.49-0.12c0.45,0.09,0.88,0.29,1.29,0.58c0.3,0.19,0.72,0.56,1.25,1.09l-3.87,3.87
		c0.56,0.53,1.12,0.83,1.68,0.92c0.56,0.09,1.09-0.11,1.59-0.61c0.46-0.46,0.68-0.99,0.64-1.57c-0.02-0.33-0.12-0.65-0.29-0.95
		l0.88-0.88c0.17,0.22,0.31,0.51,0.42,0.88s0.16,0.71,0.15,1.03c-0.01,0.54-0.16,1.05-0.47,1.54c-0.16,0.27-0.38,0.54-0.65,0.81
		c-0.66,0.66-1.46,0.98-2.4,0.95s-1.84-0.47-2.71-1.34c-0.85-0.85-1.32-1.78-1.39-2.77c-0.07-0.99,0.26-1.87,1.01-2.61
		C451.97,307.57,452.42,307.29,452.95,307.12z M455.36,308.89c-0.43-0.35-0.82-0.58-1.18-0.68c-0.67-0.19-1.3,0-1.86,0.57
		c-0.41,0.41-0.6,0.9-0.58,1.47c0.02,0.57,0.25,1.09,0.69,1.57L455.36,308.89z"/>
	<path d="M460.68,304.65l-1.74-1.74l-3.12,3.12l-0.88-0.88l-1.26-7.79l0.76-0.76l4.62,4.62l1.05-1.05l0.78,0.78l-1.05,1.05
		l1.74,1.74L460.68,304.65z M458.15,302.15l-3.23-3.23l0.95,5.52L458.15,302.15z"/>
	<path d="M467.4,305.11c0.19-0.27,0.19-0.59,0-0.97c-0.1-0.2-0.22-0.37-0.36-0.51c-0.02-0.02-0.04-0.04-0.07-0.06
		s-0.04-0.03-0.08-0.05l-0.54,0.54l-1.08-1.08l1.06-1.06l1,1c0.39,0.39,0.66,0.82,0.8,1.28c0.14,0.46,0.05,0.92-0.27,1.38
		L467.4,305.11z"/>
	<path d="M469.74,299.54c-1.18-0.77-2.19-1.32-3.01-1.65c-0.82-0.33-1.34-0.38-1.54-0.18c-0.1,0.1-0.14,0.24-0.1,0.4
		c0.04,0.16,0.14,0.34,0.3,0.54l-0.23,0.23l-0.3-0.3c-0.41-0.41-0.65-0.77-0.74-1.09c-0.08-0.32,0-0.6,0.23-0.83
		c0.44-0.44,1.98,0.19,4.62,1.89l0.51,0.33c-0.45-1.11-1.08-2.18-1.89-3.22c-0.11-0.13-0.18-0.23-0.22-0.29
		c-0.26-0.34-0.42-0.62-0.46-0.84c-0.05-0.22,0-0.4,0.15-0.55c0.14-0.14,0.29-0.21,0.44-0.21c0.15,0,0.3,0.08,0.44,0.22
		c0.27,0.27,0.62,1.04,1.05,2.29c0.43,1.25,0.79,2.24,1.1,2.97c0.43,0.33,0.82,0.63,1.15,0.91c0.33,0.28,0.6,0.52,0.81,0.73
		c0.34,0.34,0.55,0.62,0.63,0.84s0.04,0.4-0.11,0.55c-0.15,0.15-0.32,0.2-0.52,0.15c-0.2-0.04-0.42-0.19-0.66-0.43
		c-0.24-0.24-0.5-0.57-0.77-0.98C470.33,300.6,470.04,300.11,469.74,299.54z"/>
	<path d="M474.96,299.63c-0.5-1.56-0.91-2.64-1.23-3.27c-0.48-0.94-1.2-1.9-2.16-2.85s-1.97-1.7-3.03-2.23
		c-0.66-0.33-1.69-0.7-3.1-1.14l0.6-0.6c1.32,0.3,2.14,0.5,2.44,0.58c0.3,0.08,0.68,0.23,1.14,0.44c0.57,0.26,1.1,0.55,1.57,0.89
		c0.47,0.34,0.9,0.69,1.27,1.07c0.98,0.98,1.7,2.01,2.16,3.09c0.3,0.69,0.62,1.82,0.96,3.4L474.96,299.63z"/>
</g>
<g>
	<path d="M37.97,329.66h2.06v1.66c0.42-0.57,0.89-1.01,1.39-1.32c0.71-0.47,1.55-0.7,2.51-0.7c1.43,0,2.64,0.54,3.63,1.63
		s1.49,2.65,1.49,4.67c0,2.73-0.72,4.69-2.15,5.86c-0.91,0.74-1.97,1.11-3.18,1.11c-0.95,0-1.75-0.21-2.39-0.62
		c-0.38-0.23-0.8-0.64-1.26-1.21v6.41h-2.11V329.66z M45.91,339.5c0.65-0.82,0.98-2.06,0.98-3.7c0-1-0.15-1.86-0.44-2.58
		c-0.55-1.38-1.55-2.07-3.01-2.07c-1.47,0-2.47,0.73-3.01,2.19c-0.29,0.78-0.44,1.77-0.44,2.98c0,0.97,0.15,1.79,0.44,2.47
		c0.55,1.3,1.55,1.95,3.01,1.95C44.43,340.73,45.25,340.32,45.91,339.5z"/>
</g>
<g>
	<path d="M213.64,329.99c0.37,0.23,0.8,0.64,1.27,1.23v-6.34h2.03v17.27h-1.9v-1.75c-0.49,0.77-1.07,1.33-1.74,1.68
		c-0.67,0.34-1.44,0.52-2.3,0.52c-1.39,0-2.6-0.59-3.62-1.76s-1.53-2.74-1.53-4.69c0-1.83,0.46-3.41,1.4-4.75
		c0.93-1.34,2.26-2.01,3.99-2.01C212.2,329.38,213,329.58,213.64,329.99z M208.93,339.4c0.57,0.91,1.48,1.36,2.73,1.36
		c0.97,0,1.77-0.42,2.4-1.26c0.63-0.84,0.94-2.04,0.94-3.62c0-1.59-0.32-2.76-0.97-3.52s-1.44-1.14-2.39-1.14
		c-1.06,0-1.91,0.41-2.57,1.22c-0.66,0.81-0.99,2.01-0.99,3.59C208.08,337.37,208.37,338.49,208.93,339.4z"/>
</g>
<g>
	<path d="M194.56,153.78h1.88v5.69h7.08v-5.69h1.88v13.77h-1.88v-6.44h-7.08v6.44h-1.88V153.78z"/>
	<path d="M214.36,157.79c0.66,0.33,1.17,0.77,1.52,1.3c0.34,0.51,0.56,1.1,0.67,1.77c0.1,0.46,0.15,1.2,0.15,2.21h-7.3
		c0.03,1.02,0.27,1.84,0.72,2.46c0.45,0.62,1.14,0.93,2.07,0.93c0.87,0,1.57-0.29,2.09-0.88c0.29-0.34,0.5-0.73,0.62-1.18h1.66
		c-0.04,0.37-0.19,0.78-0.44,1.23c-0.25,0.45-0.52,0.82-0.83,1.11c-0.51,0.5-1.14,0.84-1.89,1.01c-0.4,0.1-0.86,0.15-1.37,0.15
		c-1.24,0-2.3-0.46-3.16-1.36s-1.29-2.18-1.29-3.82c0-1.61,0.44-2.92,1.3-3.93s2.01-1.51,3.41-1.51
		C213,157.28,213.69,157.45,214.36,157.79z M214.96,161.73c-0.07-0.73-0.23-1.32-0.47-1.75c-0.46-0.81-1.22-1.22-2.3-1.22
		c-0.77,0-1.41,0.28-1.93,0.84c-0.52,0.56-0.8,1.27-0.83,2.13H214.96z"/>
	<path d="M219.13,163.01c-0.72-0.87-1.07-1.93-1.07-3.18h1.76c0.08,0.87,0.24,1.5,0.49,1.89c0.44,0.71,1.23,1.06,2.37,1.06
		c0.89,0,1.6-0.24,2.14-0.71s0.81-1.09,0.81-1.84c0-0.93-0.28-1.57-0.85-1.94c-0.57-0.37-1.35-0.55-2.36-0.55c-0.11,0-0.23,0-0.34,0
		c-0.12,0-0.23,0.01-0.35,0.01v-1.49c0.17,0.02,0.32,0.03,0.44,0.04s0.25,0.01,0.38,0.01c0.63,0,1.15-0.1,1.56-0.3
		c0.71-0.35,1.07-0.98,1.07-1.88c0-0.67-0.24-1.18-0.71-1.55c-0.47-0.36-1.03-0.54-1.66-0.54c-1.12,0-1.9,0.38-2.33,1.12
		c-0.24,0.41-0.37,1-0.4,1.76h-1.67c0-1,0.2-1.85,0.6-2.55c0.69-1.25,1.9-1.88,3.63-1.88c1.37,0,2.43,0.3,3.18,0.91
		s1.12,1.49,1.12,2.65c0,0.83-0.22,1.49-0.67,2.01c-0.28,0.32-0.63,0.57-1.07,0.75c0.71,0.19,1.26,0.57,1.65,1.12
		c0.4,0.55,0.6,1.23,0.6,2.03c0,1.28-0.42,2.33-1.27,3.13s-2.04,1.21-3.59,1.21C220.99,164.32,219.84,163.88,219.13,163.01z"/>
</g>
<g>
	<path d="M366.31,153.78h1.88v5.69h7.08v-5.69h1.88v13.77h-1.88v-6.44h-7.08v6.44h-1.88V153.78z"/>
	<path d="M386.1,157.79c0.66,0.33,1.17,0.77,1.52,1.3c0.34,0.51,0.56,1.1,0.67,1.77c0.1,0.46,0.15,1.2,0.15,2.21h-7.3
		c0.03,1.02,0.27,1.84,0.72,2.46c0.45,0.62,1.14,0.93,2.07,0.93c0.87,0,1.57-0.29,2.09-0.88c0.29-0.34,0.5-0.73,0.62-1.18h1.66
		c-0.04,0.37-0.19,0.78-0.44,1.23c-0.25,0.45-0.52,0.82-0.83,1.11c-0.51,0.5-1.14,0.84-1.89,1.01c-0.4,0.1-0.86,0.15-1.37,0.15
		c-1.24,0-2.29-0.46-3.16-1.36s-1.29-2.18-1.29-3.82c0-1.61,0.43-2.92,1.3-3.93c0.87-1.01,2.01-1.51,3.41-1.51
		C384.75,157.28,385.44,157.45,386.1,157.79z M386.71,161.73c-0.07-0.73-0.23-1.32-0.47-1.75c-0.46-0.81-1.22-1.22-2.3-1.22
		c-0.77,0-1.41,0.28-1.93,0.84c-0.52,0.56-0.8,1.27-0.83,2.13H386.71z"/>
	<path d="M395.72,163.95v-3.28h-5.89v-1.65l6.15-8.53h1.42v8.71h1.98v1.47h-1.98v3.28H395.72z M395.69,159.2v-6.1l-4.3,6.1H395.69z"
		/>
</g>
<g>
	<path d="M379.97,326.1h2.13v3.5h2v1.72h-2v8.19c0,0.44,0.15,0.73,0.45,0.88c0.16,0.09,0.44,0.13,0.82,0.13c0.1,0,0.21,0,0.33-0.01
		s0.25-0.02,0.41-0.04v1.68c-0.24,0.07-0.49,0.12-0.76,0.15s-0.54,0.05-0.85,0.05c-0.98,0-1.65-0.25-2-0.76s-0.53-1.16-0.53-1.96
		v-8.31h-1.7v-1.72h1.7V326.1z"/>
</g>
<g>
	<path d="M205.25,501.2h2v1.78c0.59-0.73,1.22-1.26,1.89-1.58s1.4-0.48,2.21-0.48c1.78,0,2.98,0.62,3.61,1.86
		c0.34,0.68,0.52,1.65,0.52,2.92v8.05h-2.14v-7.91c0-0.77-0.11-1.38-0.34-1.85c-0.38-0.78-1.05-1.17-2.04-1.17
		c-0.5,0-0.91,0.05-1.23,0.15c-0.58,0.17-1.09,0.52-1.52,1.03c-0.35,0.41-0.58,0.84-0.69,1.28s-0.16,1.07-0.16,1.89v6.57h-2.11
		V501.2z"/>
</g>
</svg>
